<svg xmlns="http://www.w3.org/2000/svg" width="103" height="103" viewBox="0 0 103 103" fill="none">
<path fill-rule="evenodd" clip-rule="evenodd" d="M51.1 102.2C79.3217 102.2 102.2 79.3217 102.2 51.1C102.2 22.8782 79.3217 0 51.1 0C22.8782 0 0 22.8782 0 51.1C0 79.3217 22.8782 102.2 51.1 102.2ZM51.1 88.9C71.9764 88.9 88.9 71.9764 88.9 51.1C88.9 30.2236 71.9764 13.3 51.1 13.3C30.2236 13.3 13.3 30.2236 13.3 51.1C13.3 71.9764 30.2236 88.9 51.1 88.9Z" fill="#B4E300"/>
<mask id="mask0_3136_7875" style="mask-type:alpha" maskUnits="userSpaceOnUse" x="15" y="15" width="72" height="72">
<circle cx="51.1004" cy="51.1" r="35.7" fill="#C4C4C4"/>
</mask>
<g mask="url(#mask0_3136_7875)">
<path d="M74.3097 21.7C74.5808 22.4066 74.85 23.1137 75.1253 23.8185C75.1439 23.8619 75.1534 23.9087 75.1531 23.9559C75.1529 24.0031 75.143 24.0498 75.1241 24.093C74.521 25.6454 73.9207 27.1986 73.3229 28.7525C72.6021 30.6208 71.8812 32.4891 71.1603 34.3572C70.563 35.904 69.9657 37.4506 69.3684 38.9971C68.6895 40.7552 68.0112 42.5136 67.3333 44.2722C66.9076 45.3762 66.4807 46.4796 66.0526 47.5822C66.0355 47.6263 66.0198 47.671 65.9968 47.7333C66.1337 47.7776 66.2612 47.8195 66.3881 47.86C68.5298 48.5357 70.543 49.5692 72.3432 50.9171C74.7049 52.6836 76.5992 54.8615 78.0262 57.451C78.9285 59.0926 79.5978 60.853 80.0145 62.6811C80.2508 63.7095 80.4127 64.7511 80.4697 65.8052C80.5068 66.4931 80.5072 67.1845 80.4879 67.8732C80.3612 72.3969 78.8414 76.4087 76.039 79.9327C74.1606 82.2947 71.8499 84.125 69.1488 85.4561C67.7904 86.1284 66.3579 86.6374 64.8808 86.9724C64.1732 87.1336 63.4579 87.2589 62.7378 87.3477C61.5248 87.4941 60.3074 87.5467 59.0833 87.4541C57.7748 87.3554 56.4834 87.1668 55.2178 86.8213C51.0367 85.6803 47.5884 83.4018 44.8602 80.0265C43.3099 78.1084 42.1662 75.962 41.3944 73.616C41.0671 72.6205 40.8109 71.6055 40.6529 70.5699C40.5444 69.8555 40.4892 69.133 40.4111 68.4143C40.412 68.3904 40.4156 68.3668 40.4218 68.3437H42.9062C42.9289 68.5658 42.9548 68.7894 42.974 69.0136C43.04 69.7477 43.157 70.4763 43.3241 71.194C44.0081 74.1879 45.3543 76.8438 47.388 79.1372C49.2251 81.2102 51.4295 82.7573 54.0011 83.7785C55.1229 84.2217 56.2879 84.5456 57.4768 84.7448C58.729 84.9575 60.0011 85.0278 61.269 84.9543C65.0864 84.7332 68.4951 83.4225 71.4678 81.003C73.8776 79.0416 75.6489 76.5983 76.7961 73.701C77.2618 72.5225 77.5965 71.296 77.7942 70.0437C78.019 68.647 78.0764 67.2284 77.9652 65.818C77.792 63.6399 77.2443 61.5605 76.3074 59.5882C75.2869 57.4408 73.8944 55.5723 72.13 53.9825C70.5621 52.5642 68.7532 51.4408 66.7897 50.666C65.6883 50.2275 64.5444 49.9058 63.3765 49.7063C63.1149 49.662 62.8529 49.62 62.5773 49.5747C65.8487 41.1254 69.1213 32.6738 72.3951 24.2199C71.6445 24.2168 70.9218 24.2199 70.1993 24.2185C69.4767 24.217 68.7575 24.2185 68.0383 24.2185H46.2816C46.2741 24.1502 46.2647 24.1038 46.2647 24.0574C46.2638 23.3059 46.2638 22.5542 46.2647 21.8025C46.2665 21.7682 46.2703 21.734 46.2758 21.7H74.3097Z" fill="#B4E300"/>
<path d="M18.2006 33.0369H20.9399L32.9708 64.5018H30.263C30.1553 64.2246 30.0449 63.9429 29.9369 63.6616C29.3348 62.0875 28.7331 60.5134 28.1318 58.9392C27.4129 57.0564 26.6943 55.1737 25.976 53.291C25.4236 51.8457 24.8704 50.4007 24.3163 48.9561C23.6774 47.2862 23.0389 45.6159 22.4009 43.9451C21.8064 42.3904 21.2118 40.8355 20.6168 39.2804C19.9014 37.4106 19.1863 35.5407 18.4715 33.6706C18.4173 33.5292 18.3685 33.3857 18.3087 33.2466C18.2828 33.186 18.2369 33.134 18.2002 33.0781L18.2006 33.0369Z" fill="#B4E300"/>
<path d="M46.7984 68.3422H49.2954C49.3318 68.6014 49.3571 68.854 49.4041 69.103C50.0723 72.7179 51.9533 75.4742 55.1633 77.2785C56.1878 77.854 57.293 78.2177 58.4481 78.417C59.2472 78.5555 60.0546 78.5957 60.8657 78.5619C62.1271 78.5091 63.3702 78.2394 64.5409 77.7645C66.0814 77.1461 67.4659 76.1916 68.5947 74.97C69.9934 73.4657 70.9208 71.71 71.3771 69.7029C71.6208 68.6323 71.7041 67.5312 71.6243 66.4359C71.3403 62.3751 68.9772 58.9657 65.6575 57.1828C64.7334 56.6848 63.7447 56.3188 62.72 56.0956C61.9219 55.9233 61.1079 55.837 60.2916 55.8383C58.6246 55.837 56.9575 55.8376 55.2904 55.8399H55.029C54.9159 55.5482 54.8041 55.2617 54.6941 54.9744C54.5388 54.5695 54.3868 54.1636 54.2293 53.7597C54.2129 53.7228 54.2042 53.6829 54.2035 53.6425C54.2029 53.6021 54.2105 53.5619 54.2258 53.5245C54.9277 51.6934 55.6278 49.8614 56.326 48.0285C57.0031 46.2541 57.6801 44.4796 58.357 42.7052C58.9457 41.1623 59.5344 39.6195 60.1234 38.0769C60.768 36.3869 61.4127 34.6967 62.0574 33.0063C62.3467 32.248 62.6364 31.4899 62.9266 30.7319C62.9457 30.6816 62.9626 30.6307 62.9884 30.556H46.2773V28.0634C46.4172 28.0249 66.3544 28.0131 66.6395 28.0553L57.0137 53.3308C57.1227 53.3335 57.2086 53.337 57.2942 53.3372C58.5094 53.3416 59.7226 53.3413 60.9367 53.3507C61.6164 53.356 62.2889 53.4542 62.9552 53.5825C65.0911 53.9965 67.0203 54.8709 68.7428 56.2057C70.9331 57.9066 72.4856 60.0719 73.4005 62.7017C74.0512 64.5785 74.2767 66.5123 74.0922 68.4867C73.8277 71.3158 72.7945 73.8307 70.9926 76.0315C69.4863 77.8703 67.6296 79.2319 65.4225 80.1163C64.4104 80.5207 63.3537 80.8016 62.2751 80.9531C61.3644 81.0811 60.4433 81.1185 59.5253 81.0646C58.0658 80.9853 56.6298 80.661 55.2768 80.1054C53.3333 79.3092 51.6642 78.1224 50.2694 76.5449C49.0284 75.1422 48.1072 73.5516 47.5059 71.7732C47.1622 70.7653 46.9436 69.7306 46.8219 68.6741C46.8096 68.5718 46.8069 68.4685 46.7984 68.3422Z" fill="#B4E300"/>
<path d="M44.8982 47.4536L38.3621 64.5027H35.6514L44.9003 40.374L44.9462 40.3697C48.0203 48.4065 51.096 56.4505 54.1734 64.5018H51.4644C49.2949 58.8299 47.1219 53.1476 44.9456 47.4551L44.8982 47.4536Z" fill="#B4E300"/>
<path d="M34.3005 57.1519L25.0615 33.0481H27.772C29.9489 38.727 32.1316 44.4204 34.3199 50.1284L40.8521 33.0467H43.5615C40.4858 41.0923 37.4124 49.1299 34.3415 57.1596L34.3005 57.1519Z" fill="#B4E300"/>
<path d="M48.9742 33.0508C49.2322 33.7206 49.4896 34.3888 49.7462 35.0554C50.2984 36.4865 50.8509 37.9172 51.4036 39.3475C52.0444 41.0085 52.6846 42.6702 53.3242 44.3328C53.5938 45.0321 53.8632 45.7307 54.1378 46.4283C54.162 46.4844 54.1746 46.5449 54.1749 46.6061C54.1751 46.6672 54.163 46.7278 54.1392 46.7841C53.7333 47.8359 53.3331 48.8902 52.9302 49.9433C52.9108 49.994 52.8853 50.0424 52.8435 50.1337C50.6434 44.4226 48.4564 38.7467 46.2627 33.0508H48.9742Z" fill="#B4E300"/>
<path d="M61.8739 58.4855C61.1001 60.5034 60.3323 62.5056 59.5648 64.5074H56.876C56.8856 64.4531 56.8985 64.3996 56.9147 64.3469C57.5824 62.6063 58.2509 60.8659 58.92 59.1258C59.0038 58.9076 59.0899 58.6901 59.1696 58.4702C59.2048 58.3729 59.2602 58.3346 59.3667 58.3348C60.1481 58.3371 60.9304 58.3189 61.7058 58.4448C61.759 58.4532 61.8092 58.4696 61.8739 58.4855Z" fill="#B4E300"/>
</g>
<path d="M28.0747 93.6426C27.8553 93.5285 27.6616 93.3706 27.5059 93.1785C27.3502 92.9865 27.2358 92.7645 27.1697 92.5264C27.0966 92.2923 27.0721 92.0457 27.0978 91.8019C27.1234 91.558 27.1987 91.3219 27.3189 91.1081L29.3643 87.339C29.4782 87.1201 29.636 86.927 29.8279 86.7718C30.0198 86.6166 30.2417 86.5026 30.4797 86.4368C30.7148 86.363 30.9626 86.338 31.2077 86.3633C31.4528 86.3886 31.6902 86.4637 31.9052 86.584C32.1242 86.698 32.3174 86.8557 32.4727 87.0474C32.6281 87.2391 32.7423 87.4607 32.8083 87.6983C32.8803 87.9334 32.9038 88.1806 32.8775 88.425C32.8512 88.6694 32.7756 88.9059 32.6552 89.1203L32.2286 89.9059L31.1532 89.323L31.5895 88.5183C31.6334 88.4398 31.6609 88.3533 31.6701 88.2639C31.6793 88.1745 31.6701 88.0841 31.6431 87.9984C31.6189 87.9119 31.5772 87.8314 31.5206 87.7617C31.464 87.692 31.3937 87.6346 31.314 87.5932C31.2366 87.5491 31.1508 87.5218 31.0621 87.5129C30.9734 87.504 30.8839 87.5138 30.7993 87.5416C30.7129 87.5662 30.6326 87.6082 30.5631 87.6651C30.4937 87.722 30.4366 87.7925 30.3956 87.8723L28.3502 91.6586C28.306 91.7362 28.2782 91.8221 28.2687 91.9109C28.2591 91.9997 28.268 92.0895 28.2947 92.1747C28.3186 92.26 28.3598 92.3395 28.4158 92.4082C28.4718 92.4769 28.5412 92.5334 28.62 92.5741C28.6981 92.6182 28.7843 92.646 28.8734 92.6558C28.9625 92.6657 29.0527 92.6574 29.1385 92.6315C29.2251 92.608 29.3058 92.5668 29.3756 92.5105C29.4455 92.4543 29.5028 92.3842 29.5441 92.3046L30.2789 90.9495L29.7049 90.636L30.2693 89.5982L31.9243 90.4946L30.6195 92.8991C30.5054 93.1178 30.3475 93.3108 30.1556 93.466C29.9637 93.6212 29.7419 93.7353 29.504 93.8012C29.2675 93.8736 29.0187 93.8969 28.7729 93.8696C28.5271 93.8423 28.2895 93.7651 28.0747 93.6426Z" fill="#16171A"/>
<path d="M35.8133 88.4419C36.044 88.5313 36.2537 88.6672 36.4295 88.8412C36.6053 89.0151 36.7434 89.2234 36.8351 89.453C36.9331 89.6796 36.9836 89.9238 36.9836 90.1707C36.9836 90.4175 36.9331 90.6618 36.8351 90.8884L35.2145 94.841C35.1247 95.0715 34.9885 95.2811 34.8144 95.457C34.6403 95.6329 34.432 95.7713 34.2023 95.8636C33.9753 95.961 33.7309 96.0113 33.4838 96.0113C33.2368 96.0113 32.9924 95.961 32.7654 95.8636C32.5358 95.7744 32.3272 95.6387 32.1527 95.465C31.9781 95.2913 31.8415 95.0834 31.7513 94.8544C31.6538 94.628 31.6035 94.3841 31.6035 94.1376C31.6035 93.8912 31.6538 93.6473 31.7513 93.4209L33.37 89.4682C33.4601 89.2376 33.5966 89.0279 33.771 88.8521C33.9454 88.6762 34.1541 88.5379 34.3841 88.4457C34.6094 88.3476 34.8525 88.2967 35.0983 88.296C35.3441 88.2954 35.5875 88.345 35.8133 88.4419ZM35.7062 90.401C35.7412 90.3195 35.7593 90.2317 35.7593 90.143C35.7593 90.0542 35.7412 89.9664 35.7062 89.8849C35.6725 89.8025 35.6224 89.7278 35.5589 89.6654C35.4954 89.603 35.4199 89.5541 35.3369 89.5218C35.2551 89.4877 35.1673 89.4702 35.0786 89.4702C34.9899 89.4702 34.9022 89.4877 34.8203 89.5218C34.7369 89.554 34.6611 89.6033 34.5979 89.6665C34.5346 89.7297 34.4852 89.8054 34.4529 89.8887L32.8266 93.8548C32.7911 93.9362 32.7728 94.024 32.7728 94.1128C32.7728 94.2016 32.7911 94.2894 32.8266 94.3708C32.8596 94.4533 32.9093 94.5281 32.9725 94.5905C33.0357 94.653 33.1111 94.7018 33.194 94.734C33.2757 94.77 33.364 94.7885 33.4532 94.7885C33.5425 94.7885 33.6308 94.77 33.7125 94.734C33.7944 94.7004 33.8687 94.6505 33.9309 94.5875C33.993 94.5244 34.0417 94.4494 34.0741 94.367L35.7062 90.401Z" fill="#16171A"/>
<path d="M39.044 97.8687L35.9502 96.9627L38.1544 89.4492L39.289 89.7799L37.4158 96.1695L39.3732 96.7429L39.044 97.8687Z" fill="#16171A"/>
<path d="M44.2313 97.0104C44.1888 97.2524 44.0975 97.4832 43.963 97.6889C43.8285 97.8946 43.6535 98.0708 43.4487 98.2069C43.2497 98.3492 43.0235 98.4489 42.7842 98.4999C42.5448 98.5509 42.2975 98.552 42.0577 98.5032L40.2344 98.1591L41.6923 90.4641L43.5157 90.8101C43.7576 90.8514 43.9882 90.9423 44.1931 91.0772C44.3979 91.2121 44.5725 91.388 44.7058 91.5937C44.8456 91.7948 44.9432 92.0221 44.9925 92.262C45.0418 92.5018 45.0419 92.7491 44.9928 92.989L44.2313 97.0104ZM41.612 97.2302L42.3103 97.3621C42.3979 97.3806 42.4884 97.3803 42.5758 97.3611C42.6632 97.342 42.7456 97.3046 42.8174 97.2513C42.9586 97.147 43.0539 96.9922 43.0833 96.8193L43.8487 92.794C43.8665 92.7069 43.8664 92.617 43.8483 92.5299C43.8302 92.4428 43.7945 92.3604 43.7434 92.2875C43.6963 92.2133 43.6342 92.1499 43.561 92.1011C43.4879 92.0524 43.4053 92.0195 43.3187 92.0046L42.6203 91.8709L41.612 97.2302Z" fill="#16171A"/>
<path d="M51.2594 91.5573L52.4954 91.6051L50.9647 99.3823L49.8301 99.3384L49.3326 95.0455L48.5386 99.2887L47.4097 99.2447L46.4033 91.37L47.6412 91.4178L48.0966 95.6227L48.8237 91.4675L50.0616 91.5153L50.5151 95.7202L51.2594 91.5573Z" fill="#16171A"/>
<path d="M54.7912 99.2084L53.6126 99.2849L53.1074 91.4714L54.2861 91.3949L54.7912 99.2084Z" fill="#16171A"/>
<path d="M56.3567 91.1808L58.6775 96.1503L57.9122 90.9476L59.0813 90.7737L60.2293 98.5203L58.976 98.7115L56.6322 93.9886L57.3688 98.958L56.1998 99.132L55.0518 91.3872L56.3567 91.1808Z" fill="#16171A"/>
<path d="M60.9753 90.3035L63.8587 94.971L62.4849 89.8945L63.6329 89.5868L65.6783 97.1461L64.4556 97.4749L61.5761 93.0597L62.8867 97.8992L61.7387 98.2088L59.6934 90.6495L60.9753 90.3035Z" fill="#16171A"/>
<path d="M67.1075 96.6529L64.2471 89.365L67.3811 88.1379L67.8116 89.2389L65.7797 90.034L66.5622 92.0313L68.0469 91.4579L68.4794 92.5569L66.9946 93.1399L67.7772 95.1334L69.8091 94.3383L70.2396 95.4373L67.1075 96.6529Z" fill="#16171A"/>
<path d="M69.442 87.1173C70.0275 86.8154 70.5377 86.7561 70.9727 86.9396C71.4054 87.1404 71.7502 87.4916 71.9428 87.9278L72.4632 88.9389C72.5874 89.1724 72.6592 89.4301 72.6738 89.6941C72.6883 89.9582 72.6452 90.2222 72.5474 90.4679L74.8931 93.1094L73.7604 93.6828L71.7648 91.3892L71.671 91.4408L71.0684 91.7504L72.4211 94.3766L71.3707 94.9175L67.7812 87.9564L69.442 87.1173ZM70.9344 88.4744C70.7252 88.0692 70.4217 87.9692 70.0237 88.1743L69.3904 88.4992L70.5384 90.724L71.1698 90.3991C71.25 90.36 71.3212 90.3046 71.3789 90.2365C71.4365 90.1684 71.4794 90.089 71.5046 90.0035C71.5317 89.919 71.5414 89.8299 71.5331 89.7415C71.5249 89.6532 71.499 89.5674 71.4568 89.4893L70.9344 88.4744Z" fill="#16171A"/>
<path d="M21.912 12.6478C22.1068 12.4957 22.3307 12.3852 22.57 12.3231C22.8092 12.2609 23.0588 12.2485 23.303 12.2866C23.5468 12.3161 23.782 12.3953 23.9939 12.5192C24.2059 12.6432 24.3901 12.8092 24.5352 13.0072L27.1278 16.4266C27.2799 16.6208 27.3905 16.8442 27.4527 17.0829C27.5149 17.3216 27.5274 17.5705 27.4894 17.8142C27.4592 18.0585 27.3794 18.2941 27.2547 18.5065C27.13 18.7188 26.963 18.9034 26.7642 19.0489C26.5702 19.201 26.3469 19.3116 26.1083 19.3737C25.8696 19.4359 25.6207 19.4483 25.3771 19.4102C25.1329 19.3787 24.8976 19.2981 24.6855 19.1733C24.4734 19.0484 24.2889 18.8819 24.143 18.6838L23.6034 17.9709L24.5792 17.2331L25.1321 17.9614C25.1855 18.0339 25.2531 18.0948 25.3307 18.1404C25.4083 18.1861 25.4944 18.2156 25.5837 18.227C25.6729 18.2404 25.7639 18.2354 25.851 18.2124C25.9382 18.1894 26.0198 18.1489 26.0907 18.0932C26.1625 18.0411 26.2225 17.9745 26.267 17.8978C26.3115 17.8211 26.3394 17.736 26.349 17.6479C26.3623 17.5591 26.3572 17.4686 26.3342 17.3818C26.3112 17.295 26.2707 17.2139 26.2151 17.1433L23.6187 13.7182C23.5657 13.6458 23.4985 13.5849 23.4212 13.5392C23.3439 13.4935 23.2581 13.464 23.1691 13.4525C23.0813 13.4396 22.992 13.4444 22.9062 13.4667C22.8204 13.4891 22.7399 13.5284 22.6697 13.5825C22.5977 13.6359 22.537 13.7031 22.4914 13.7803C22.4457 13.8574 22.4159 13.9429 22.4037 14.0317C22.3896 14.1203 22.3941 14.2109 22.4168 14.2978C22.4396 14.3846 22.4801 14.4658 22.5358 14.5362L23.4675 15.7652L23.9918 15.3677L24.7055 16.31L23.2035 17.4453L21.5523 15.2645C21.3992 15.0707 21.288 14.8474 21.2254 14.6086C21.1628 14.3698 21.1504 14.1207 21.1888 13.8768C21.2202 13.6339 21.3004 13.3998 21.4247 13.1886C21.549 12.9774 21.7148 12.7934 21.912 12.6478Z" fill="#16171A"/>
<path d="M23.4482 21.8394C23.2715 22.0111 23.0616 22.1449 22.8313 22.2327C22.601 22.3204 22.3552 22.3603 22.1089 22.3498C21.8619 22.3448 21.6186 22.2897 21.3936 22.1879C21.1686 22.086 20.9667 21.9395 20.8002 21.7572L17.8651 18.6456C17.6937 18.4688 17.5602 18.259 17.4726 18.029C17.3851 17.799 17.3455 17.5535 17.3562 17.3076C17.3607 17.0609 17.4156 16.8176 17.5176 16.5928C17.6196 16.368 17.7665 16.1664 17.9493 16.0003C18.126 15.8291 18.3361 15.696 18.5666 15.6095C18.797 15.5231 19.0428 15.4849 19.2886 15.4976C19.5351 15.5033 19.7778 15.559 20.0021 15.6611C20.2264 15.7633 20.4276 15.9099 20.5935 16.092L23.521 19.2075C23.6932 19.3838 23.8274 19.5934 23.9153 19.8236C24.0031 20.0537 24.0428 20.2994 24.0318 20.5455C24.0276 20.7894 23.9737 21.03 23.8734 21.2524C23.773 21.4749 23.6284 21.6746 23.4482 21.8394ZM21.7071 20.9296C21.7668 20.9955 21.8394 21.0484 21.9203 21.0852C22.0013 21.1221 22.0889 21.1419 22.1778 21.1437C22.267 21.1467 22.3559 21.1313 22.4388 21.0984C22.5218 21.0655 22.5971 21.0159 22.66 20.9526C22.7258 20.8932 22.7789 20.821 22.8161 20.7406C22.8532 20.6601 22.8737 20.5729 22.8761 20.4843C22.881 20.3952 22.8674 20.3061 22.8362 20.2225C22.8049 20.139 22.7566 20.0628 22.6944 19.9988L19.7574 16.8738C19.6973 16.8083 19.6242 16.7559 19.5429 16.7197C19.4617 16.6835 19.3738 16.6644 19.2849 16.6635C19.1954 16.6612 19.1064 16.6769 19.0233 16.7097C18.9401 16.7426 18.8644 16.7919 18.8008 16.8547C18.7344 16.9143 18.681 16.987 18.6441 17.0683C18.6073 17.1496 18.5876 17.2376 18.5865 17.3268C18.5835 17.4159 18.5989 17.5047 18.6318 17.5875C18.6647 17.6704 18.7144 17.7456 18.7778 17.8084L21.7071 20.9296Z" fill="#16171A"/>
<path d="M13.5244 20.8513L15.6291 18.4182L21.5509 23.5482L20.776 24.4408L15.7401 20.0792L14.4007 21.6197L13.5244 20.8513Z" fill="#16171A"/>
<path d="M12.1432 25.9087C11.9398 25.7698 11.767 25.5908 11.6354 25.3828C11.5038 25.1747 11.4162 24.942 11.3778 24.6989C11.3307 24.459 11.3339 24.212 11.3873 23.9735C11.4406 23.735 11.5429 23.5101 11.6878 23.3131L12.7612 21.8013L19.1555 26.3292L18.0822 27.8411C17.9436 28.0434 17.7647 28.215 17.5566 28.3449C17.3485 28.4748 17.1157 28.5603 16.8729 28.5961C16.6314 28.6391 16.3836 28.6328 16.1446 28.5777C15.9055 28.5225 15.6801 28.4195 15.4819 28.275L12.1432 25.9087ZM13.0329 23.4393L12.6215 24.0127C12.5685 24.0842 12.5314 24.1662 12.5126 24.2532C12.4938 24.3403 12.4937 24.4303 12.5124 24.5173C12.5281 24.6044 12.5609 24.6876 12.6089 24.762C12.6568 24.8365 12.7189 24.9007 12.7918 24.9512L16.1363 27.3212C16.2085 27.3732 16.2904 27.4103 16.3771 27.4303C16.4638 27.4503 16.5537 27.4529 16.6414 27.4378C16.7288 27.4252 16.8126 27.3948 16.8876 27.3484C16.9627 27.302 17.0274 27.2407 17.0777 27.1683L17.489 26.5949L13.0329 23.4393Z" fill="#16171A"/>
<path d="M14.1923 34.569L13.6355 35.6718L7.18945 31.0521L7.70035 30.041L11.8179 31.379L8.28392 28.8942L8.79286 27.887L16.3811 30.2456L15.8244 31.3484L11.7968 30.0105L15.2829 32.4073L14.7261 33.512L10.6985 32.1741L14.1923 34.569Z" fill="#16171A"/>
<path d="M5.75195 34.6148L6.17101 33.512L13.5029 36.2834L13.0839 37.3862L5.75195 34.6148Z" fill="#16171A"/>
<path d="M12.4262 39.3589L6.93494 39.4163L11.9957 40.8612L11.6724 41.9966L4.13379 39.8463L4.48203 38.6307L9.7552 38.4396L4.92785 37.0615L5.25311 35.9261L12.7897 38.0764L12.4262 39.3589Z" fill="#16171A"/>
<path d="M11.3221 43.9269L5.87483 44.6188L11.0695 45.4674L10.8782 46.6333L3.14258 45.368L3.34732 44.1218L8.56308 43.3267L3.60942 42.5182L3.80076 41.3523L11.5364 42.6176L11.3221 43.9269Z" fill="#16171A"/>
<path d="M2.99504 46.8705L10.8225 47.2967L10.6312 50.653L9.45065 50.5899L9.5693 48.411L7.42441 48.2944L7.3364 49.8847L6.1578 49.8216L6.24389 48.2314L4.10288 48.1148L3.98423 50.2918L2.80371 50.2268L2.99504 46.8705Z" fill="#16171A"/>
<path d="M10.7077 52.958C10.7383 53.6155 10.5795 54.1055 10.2312 54.4279C9.86808 54.7366 9.40503 54.903 8.92824 54.8961L7.78981 54.9497C7.52421 54.9659 7.25824 54.9239 7.01065 54.8265C6.76306 54.7291 6.53986 54.5787 6.35672 54.3858L2.97582 55.4179L2.91654 54.1469L5.84013 53.2906C5.83816 53.255 5.83816 53.2192 5.84013 53.1836L5.80757 52.507L2.85338 52.6446L2.7998 51.4653L10.6292 51.1002L10.7077 52.958ZM8.85172 53.7493C9.3071 53.7264 9.5252 53.4932 9.50415 53.046L9.46973 52.3349L6.96706 52.4515L7.00149 53.1626C7.00357 53.2515 7.02444 53.339 7.06268 53.4194C7.10093 53.4998 7.15572 53.5711 7.22347 53.6289C7.28846 53.6892 7.3651 53.7355 7.44867 53.7651C7.53224 53.7947 7.621 53.8069 7.70946 53.8009L8.85172 53.7493Z" fill="#16171A"/>
<path d="M99.3986 50.2572C99.4079 50.5042 99.3661 50.7505 99.2759 50.9807C99.1857 51.2109 99.049 51.42 98.8744 51.5951C98.7065 51.7743 98.5039 51.9175 98.2789 52.016C98.0539 52.1146 97.8113 52.1665 97.5657 52.1686L93.2721 52.2507C93.0248 52.2603 92.7782 52.2187 92.5477 52.1286C92.3172 52.0385 92.1079 51.9018 91.9328 51.727C91.7527 51.5591 91.6088 51.3562 91.5101 51.1307C91.4114 50.9052 91.3599 50.662 91.3588 50.4159C91.3491 50.1688 91.3906 49.9224 91.4809 49.6921C91.5711 49.4619 91.708 49.2528 91.8831 49.0779C92.0517 48.8988 92.255 48.7556 92.4806 48.6571C92.7062 48.5585 92.9494 48.5066 93.1956 48.5045L94.0891 48.4873L94.114 49.7106L93.1994 49.7297C93.1093 49.7297 93.0203 49.7483 92.9377 49.7841C92.8551 49.8199 92.7807 49.8723 92.7192 49.938C92.6561 50.0022 92.6067 50.0785 92.5738 50.1622C92.5409 50.246 92.5253 50.3355 92.5278 50.4254C92.5287 50.5143 92.5479 50.6021 92.5841 50.6833C92.6203 50.7645 92.6728 50.8374 92.7383 50.8975C92.8022 50.9605 92.8782 51.01 92.9617 51.0428C93.0452 51.0757 93.1346 51.0913 93.2243 51.0886L97.5255 51.0065C97.6153 51.0064 97.704 50.9878 97.7863 50.952C97.8686 50.9161 97.9427 50.8638 98.0038 50.7981C98.0667 50.7354 98.1162 50.6605 98.1491 50.578C98.182 50.4955 98.1977 50.4071 98.1951 50.3184C98.1948 50.2286 98.1763 50.1399 98.1408 50.0575C98.1053 49.975 98.0535 49.9006 97.9885 49.8386C97.9253 49.7752 97.8497 49.7255 97.7664 49.6926C97.6831 49.6597 97.5939 49.6443 97.5044 49.6475L95.9604 49.6781L95.9737 50.3337L94.7913 50.3566L94.755 48.4778L97.493 48.4242C97.7404 48.4141 97.9871 48.4554 98.2177 48.5455C98.4482 48.6357 98.6576 48.7727 98.8323 48.9479C99.0103 49.1167 99.1522 49.3197 99.2495 49.5447C99.3469 49.7697 99.3976 50.0121 99.3986 50.2572Z" fill="#16171A"/>
<path d="M91.0548 46.0905C91.0203 45.8454 91.0364 45.5958 91.1023 45.3571C91.1681 45.1184 91.2821 44.8958 91.4374 44.7029C91.5864 44.506 91.7741 44.3415 91.9889 44.2196C92.2037 44.0977 92.4412 44.0208 92.6868 43.9938L96.9287 43.4605C97.1741 43.4261 97.424 43.4422 97.6629 43.5079C97.9018 43.5737 98.1247 43.6876 98.3178 43.8428C98.5147 43.9918 98.6793 44.1793 98.8013 44.3939C98.9233 44.6084 99.0003 44.8456 99.0276 45.0909C99.0618 45.3345 99.0455 45.5826 98.9797 45.8196C98.9138 46.0567 98.7999 46.2777 98.645 46.4689C98.4953 46.6648 98.3074 46.8283 98.0926 46.9495C97.8779 47.0708 97.6408 47.1472 97.3956 47.1742L93.1518 47.7075C92.9067 47.7426 92.6569 47.7268 92.4182 47.661C92.1795 47.5952 91.957 47.4809 91.7646 47.3252C91.568 47.1789 91.4035 46.9938 91.2814 46.7814C91.1593 46.5691 91.0822 46.3339 91.0548 46.0905ZM92.815 45.2189C92.7264 45.2286 92.6408 45.2561 92.5631 45.2998C92.4855 45.3435 92.4176 45.4024 92.3635 45.4731C92.3084 45.5428 92.2682 45.623 92.2451 45.7088C92.2221 45.7946 92.2168 45.8841 92.2296 45.972C92.2398 46.0603 92.2675 46.1457 92.3112 46.2232C92.3549 46.3007 92.4136 46.3686 92.484 46.4231C92.5528 46.4799 92.6329 46.5215 92.719 46.5452C92.805 46.5689 92.8952 46.5742 92.9834 46.5607L97.2406 46.0255C97.329 46.0156 97.4144 45.9875 97.4914 45.9431C97.5684 45.8987 97.6354 45.8389 97.6883 45.7675C97.7439 45.698 97.7846 45.6179 97.808 45.5321C97.8314 45.4463 97.8369 45.3566 97.8242 45.2686C97.815 45.1798 97.7874 45.0939 97.7433 45.0163C97.6991 44.9386 97.6394 44.871 97.5678 44.8176C97.4983 44.7626 97.4184 44.7224 97.3329 44.6994C97.2473 44.6764 97.158 44.6711 97.0703 44.6838L92.815 45.2189Z" fill="#16171A"/>
<path d="M97.6897 38.6555L98.4187 41.792L90.7806 43.5581L90.5146 42.4113L97.0086 40.9071L96.5474 38.9212L97.6897 38.6555Z" fill="#16171A"/>
<path d="M94.4064 34.5632C94.6385 34.4811 94.8849 34.447 95.1307 34.4631C95.3764 34.4792 95.6163 34.5451 95.8357 34.6568C96.0569 34.7605 96.2545 34.9085 96.4161 35.0917C96.5777 35.2748 96.6999 35.4892 96.7751 35.7215L97.3682 37.4799L89.9406 39.9818L89.3475 38.2253C89.2655 37.9941 89.2322 37.7484 89.2496 37.5037C89.2671 37.259 89.3349 37.0205 89.4489 36.8033C89.5564 36.5834 89.7072 36.3874 89.8923 36.2271C90.0774 36.0669 90.293 35.9456 90.5261 35.8705L94.4064 34.5632ZM95.8835 36.7345L95.6558 36.0598C95.6286 35.9754 95.5839 35.8977 95.5245 35.8318C95.4651 35.766 95.3925 35.7134 95.3114 35.6775C95.2314 35.6389 95.1446 35.6165 95.056 35.6116C94.9673 35.6067 94.8786 35.6193 94.7948 35.6488L90.9107 36.9562C90.7431 37.0144 90.6054 37.1368 90.5281 37.2964C90.487 37.3743 90.4624 37.4598 90.4558 37.5476C90.4492 37.6354 90.4608 37.7236 90.4898 37.8067L90.7175 38.4795L95.8835 36.7345Z" fill="#16171A"/>
<path d="M86.1951 31.1229L85.6211 30.022L93.152 27.5372L93.6705 28.5445L90.171 31.0904L94.2617 29.6951L94.7783 30.6986L88.405 35.4425L87.831 34.3435L91.275 31.876L87.2799 33.2884L86.7059 32.1894L90.15 29.7219L86.1951 31.1229Z" fill="#16171A"/>
<path d="M91.1176 24.2803L91.7662 25.2684L85.2092 29.5613L84.5625 28.5731L91.1176 24.2803Z" fill="#16171A"/>
<path d="M83.3535 26.8816L86.5354 22.411L82.3892 25.6603L81.6621 24.7314L87.8345 19.9053L88.6152 20.903L85.6648 25.2704L89.6178 22.1817L90.3449 23.1106L84.1724 27.9367L83.3535 26.8816Z" fill="#16171A"/>
<path d="M80.3056 23.3017L82.9498 18.4927L79.2073 22.1893L78.375 21.3502L83.9486 15.8436L84.8383 16.7439L82.4141 21.4247L85.9824 17.8983L86.8128 18.7374L81.2393 24.2439L80.3056 23.3017Z" fill="#16171A"/>
<path d="M82.8175 14.8441L77.8696 20.9183L75.2598 18.7948L76.006 17.8793L77.6974 19.2574L79.0539 17.5926L77.8179 16.5872L78.5641 15.6717L79.8001 16.677L81.1586 15.0142L79.4653 13.6361L80.2115 12.7206L82.8175 14.8441Z" fill="#16171A"/>
<path d="M73.3542 17.4989C72.8031 17.1377 72.5008 16.721 72.4434 16.2489C72.4066 15.7745 72.5425 15.3028 72.8261 14.9205L73.4537 13.9648C73.5969 13.741 73.7874 13.5511 74.0118 13.4085C74.2362 13.2658 74.4891 13.1739 74.7528 13.1392L75.9008 9.80005L76.9647 10.5015L75.9391 13.3685L76.0309 13.4239L76.6049 13.7967L78.2313 11.3291L79.2186 11.979L74.9078 18.5196L73.3542 17.4989ZM73.8038 15.5341C73.5487 15.9163 73.6125 16.2298 73.9952 16.4744L74.5883 16.8567L75.9659 14.7657L75.3728 14.3834C75.2992 14.3331 75.216 14.2986 75.1284 14.2822C75.0407 14.2657 74.9507 14.2677 74.8638 14.2879C74.7767 14.3056 74.6941 14.3406 74.6208 14.3909C74.5475 14.4411 74.4851 14.5055 74.4372 14.5803L73.8038 15.5341Z" fill="#16171A"/>
</svg>