<svg xmlns="http://www.w3.org/2000/svg" width="102" height="102" viewBox="0 0 102 102" fill="none">
<path fill-rule="evenodd" clip-rule="evenodd" d="M82.0726 87.7268L85.6528 88.4646L85.1938 84.8368L88.8284 85.255L88.0498 81.6816L91.7048 81.7802L90.6134 78.2884L94.265 78.0606L92.8676 74.681L96.4852 74.1302L94.7954 70.8866L98.3484 70.023L96.3798 66.9392L99.8444 65.7628L97.6106 62.866L100.956 61.387L98.4742 58.701L101.677 56.933L98.9672 54.4748L102 52.4314L99.0862 50.2214L101.925 47.9162L98.8278 45.9748L101.453 43.4282L98.192 41.769L100.582 39.0014L97.1924 37.6346L99.3276 34.663L95.829 33.6022L97.6922 30.4572L94.112 29.7092L95.693 26.4112L92.0618 25.9828L93.3436 22.559L89.6886 22.4502L90.6644 18.9278L87.0128 19.1454L87.6724 15.5482L84.0548 16.0854L84.3948 12.444L80.8384 13.3008L80.8554 9.6458L77.3908 10.812L77.0814 7.1672L73.7324 8.6394L73.1034 5.0354L69.9006 6.7966L68.9554 3.2606L65.9158 5.2972L64.6646 1.8632L61.8188 4.1582L60.2684 0.8466L57.6368 3.3864L55.7974 0.2244L53.4004 2.9886L51.289 0L49.147 2.9648L46.7806 0.1734L44.9072 3.315L42.3028 0.748L40.715 4.0426L37.8964 1.7136L36.6044 5.134L33.5886 3.0634L32.606 6.5892L29.4202 4.7906L28.7504 8.3878L25.4184 6.8816L25.0716 10.523L21.6206 9.316L21.5934 12.9744L18.0472 12.0768L18.3464 15.7216L14.7356 15.1402L15.3544 18.7476L11.7062 18.4892L12.6446 22.0252L8.9862 22.0898L10.2306 25.5272L6.596 25.9148L8.1396 29.2332L4.5492 29.9404L6.3818 33.1058L2.8696 34.1292L4.9742 37.1212L1.564 38.4506L3.9236 41.2454L0.6494 42.8706L3.2436 45.4444L0.1258 47.3518L2.941 49.6876L0 51.8636L3.009 53.941L0.2754 56.3686L3.4544 58.174L0.9452 60.8328L4.2738 62.3492L2.0094 65.2188L5.457 66.4326L3.4544 69.496L6.9972 70.4004L5.2734 73.6236L8.8842 74.2152L7.4494 77.5778L11.0976 77.8464L9.9688 81.3246L13.6238 81.2702L12.8078 84.8334L16.4458 84.456L15.946 88.077L19.533 87.38L19.3562 91.0316L22.8718 90.0184L23.018 93.6734L26.4282 92.3542L26.894 95.9786L30.175 94.3636L30.9638 97.9336L34.0884 96.0364L35.1866 99.5248L38.131 97.3556L39.5352 100.732L42.2756 98.311L43.9722 101.551L46.4916 98.8958L48.467 101.976L50.7382 99.11L52.9788 102L54.9916 98.9434L57.477 101.626L59.211 98.4062L61.9242 100.858L63.3658 97.495L66.2864 99.6948L67.422 96.22L70.5262 98.1546L71.3524 94.5914L74.6164 96.2438L75.1264 92.6228L78.5196 93.9828L78.7066 90.3278L82.2086 91.3818L82.0726 87.7268ZM51 97C76.4051 97 97 76.4051 97 51C97 25.5949 76.4051 5 51 5C25.5949 5 5 25.5949 5 51C5 76.4051 25.5949 97 51 97Z" fill="#B4E300"/>
<path d="M29.7332 86.5C29.5344 86.3837 29.3615 86.2279 29.2252 86.0422C29.0889 85.8565 28.992 85.6448 28.9404 85.4203C28.8834 85.1998 28.8716 84.97 28.9059 84.7448C28.9402 84.5197 29.0198 84.3038 29.1399 84.1103L31.1858 80.6921C31.3008 80.4932 31.4554 80.3201 31.6402 80.1837C31.825 80.0472 32.036 79.9503 32.2598 79.899C32.4819 79.8419 32.7132 79.8302 32.9399 79.8645C33.1666 79.8988 33.3841 79.9784 33.5794 80.0985C33.7775 80.2139 33.9496 80.3688 34.0851 80.5537C34.2206 80.7386 34.3166 80.9494 34.3671 81.1731C34.4245 81.3955 34.436 81.6273 34.4008 81.8543C34.3656 82.0813 34.2845 82.2988 34.1625 82.4933L33.7329 83.2046L32.7611 82.611L33.2009 81.8844C33.2452 81.8134 33.2745 81.7341 33.2868 81.6513C33.2991 81.5686 33.2943 81.4842 33.2725 81.4034C33.2536 81.3218 33.2185 81.2449 33.1693 81.1773C33.1201 81.1096 33.0578 81.0525 32.9861 81.0094C32.9157 80.966 32.8371 80.9377 32.7553 80.9263C32.6734 80.9148 32.59 80.9204 32.5105 80.9428C32.4293 80.961 32.3529 80.9958 32.2859 81.0451C32.219 81.0945 32.1631 81.1573 32.1217 81.2294L30.0759 84.6578C30.0317 84.7279 30.0025 84.8064 29.9901 84.8883C29.9778 84.9702 29.9826 85.0538 30.0043 85.1337C30.0224 85.2142 30.0566 85.2902 30.105 85.3571C30.1533 85.4239 30.2148 85.4803 30.2856 85.5226C30.3563 85.5676 30.4354 85.5975 30.518 85.6107C30.6007 85.6239 30.6852 85.6201 30.7663 85.5994C30.8485 85.5804 30.9258 85.5448 30.9936 85.4946C31.0614 85.4444 31.1181 85.3808 31.1602 85.3077L31.9018 84.0796L31.3903 83.7675L31.958 82.8259L33.4567 83.7316L32.1422 85.9064C32.0279 86.1059 31.8734 86.2794 31.6885 86.416C31.5036 86.5525 31.2923 86.6491 31.0681 86.6995C30.8438 86.7597 30.6096 86.773 30.3799 86.7387C30.1503 86.7043 29.9301 86.6231 29.7332 86.5Z" fill="#B4E300"/>
<path d="M37.1444 81.9714C37.3561 82.0624 37.5467 82.1962 37.7042 82.3644C37.8618 82.5326 37.9829 82.7316 38.06 82.9488C38.1438 83.1628 38.183 83.3916 38.1751 83.6213C38.1672 83.851 38.1123 84.0767 38.014 84.2843L36.3721 87.9072C36.2803 88.1185 36.1463 88.3087 35.9783 88.4663C35.8103 88.6238 35.6119 88.7453 35.3953 88.8232C35.1814 88.9071 34.9526 88.9463 34.723 88.9384C34.4934 88.9305 34.2679 88.8756 34.0603 88.7772C33.8498 88.6853 33.6603 88.5511 33.5037 88.383C33.3471 88.2149 33.2267 88.0164 33.1499 87.7998C33.0682 87.5861 33.0305 87.358 33.0393 87.1293C33.0481 86.9006 33.1031 86.6761 33.201 86.4693L34.8428 82.8464C34.9338 82.6347 35.0676 82.444 35.2357 82.2864C35.4038 82.1288 35.6026 82.0076 35.8197 81.9305C36.0315 81.8458 36.2584 81.8056 36.4864 81.8127C36.7143 81.8197 36.9383 81.8738 37.1444 81.9714ZM36.9757 83.7931C37.0396 83.6374 37.0396 83.4627 36.9757 83.307C36.9463 83.2297 36.9017 83.1591 36.8446 83.0994C36.7875 83.0396 36.719 82.9919 36.6432 82.959C36.5673 82.926 36.4855 82.9091 36.4028 82.9091C36.3201 82.9091 36.2383 82.926 36.1624 82.959C36.0839 82.9856 36.0118 83.0285 35.951 83.085C35.8902 83.1414 35.8419 83.2101 35.8095 83.2865L34.1626 86.9197C34.1297 86.9955 34.1127 87.0774 34.1127 87.1601C34.1127 87.2429 34.1297 87.3248 34.1626 87.4007C34.1917 87.4787 34.2361 87.5502 34.2932 87.6108C34.3502 87.6715 34.4189 87.7201 34.4951 87.7537C34.5709 87.7867 34.6527 87.8037 34.7354 87.8037C34.8181 87.8037 34.9 87.7867 34.9758 87.7537C35.0533 87.7262 35.1242 87.6829 35.1841 87.6265C35.244 87.5702 35.2915 87.502 35.3236 87.4262L36.9757 83.7931Z" fill="#B4E300"/>
<path d="M39.8498 90.8342L37.001 89.908L39.2412 82.9744L40.2897 83.3121L38.3819 89.2121L40.1874 89.7954L39.8498 90.8342Z" fill="#B4E300"/>
<path d="M44.7291 90.1433C44.6847 90.3688 44.5952 90.5829 44.466 90.7728C44.3368 90.9628 44.1705 91.1246 43.9772 91.2486C43.7905 91.3776 43.5792 91.4665 43.3565 91.5096C43.1337 91.5528 42.9045 91.5493 42.6832 91.4994L40.9902 91.1463L42.4786 84.008L44.1715 84.361C44.3956 84.4033 44.6083 84.4921 44.7959 84.6216C44.9836 84.7512 45.142 84.9187 45.261 85.1132C45.3884 85.3026 45.476 85.516 45.5182 85.7404C45.5604 85.9647 45.5565 86.1953 45.5065 86.4181L44.7291 90.1433ZM42.2894 90.3071L42.9338 90.4401C43.0152 90.4588 43.0995 90.4603 43.1814 90.4444C43.2633 90.4285 43.341 90.3957 43.4095 90.348C43.5461 90.2541 43.6414 90.1112 43.6754 89.9489L44.4529 86.2134C44.4708 86.1323 44.4723 86.0484 44.4574 85.9667C44.4424 85.885 44.4113 85.8071 44.3659 85.7375C44.3217 85.6683 44.2642 85.6086 44.1965 85.562C44.1289 85.5154 44.0526 85.4829 43.9721 85.4663L43.3277 85.3333L42.2894 90.3071Z" fill="#B4E300"/>
<path d="M51.3119 85.1133L52.4627 85.1644L51.0153 92.4L49.9617 92.354L49.5116 88.3524L48.7597 92.3028L47.7112 92.2619L46.8008 84.924L47.9516 84.97L48.3608 88.8999L49.0564 85.0161L50.202 85.0672L50.6112 88.992L51.3119 85.1133Z" fill="#B4E300"/>
<path d="M54.6265 92.2158L53.532 92.2926L53.0205 85.0212L54.1202 84.9444L54.6265 92.2158Z" fill="#B4E300"/>
<path d="M55.9456 84.7346L58.2216 89.3093L57.3828 84.4839L58.462 84.2997L59.71 91.4636L58.554 91.6631L56.2627 87.3187L57.0606 91.9241L55.9814 92.1134L54.7334 84.9495L55.9456 84.7346Z" fill="#B4E300"/>
<path d="M60.2322 83.834L63.0249 88.1119L61.6285 83.4195L62.6822 83.1022L64.7587 90.0922L63.6335 90.4299L60.8512 86.3874L62.181 90.8597L61.1273 91.1719L59.0508 84.1819L60.2322 83.834Z" fill="#B4E300"/>
<path d="M66.1244 89.5754L63.2295 82.8823L66.0988 81.6388L66.5336 82.6622L64.6719 83.4656L65.4646 85.3026L66.8251 84.7142L67.265 85.7376L65.9044 86.3261L66.6921 88.158L68.559 87.3495L68.9937 88.3729L66.1244 89.5754Z" fill="#B4E300"/>
<path d="M67.9444 80.6256C68.1488 80.4826 68.3828 80.3877 68.629 80.3478C68.8752 80.3079 69.1272 80.3242 69.3662 80.3953C69.7755 80.5633 70.11 80.8742 70.3074 81.2703L70.8188 82.1914C70.9441 82.405 71.0217 82.6432 71.0464 82.8896C71.0711 83.136 71.0423 83.3848 70.962 83.6191L73.2483 85.978L72.2254 86.5665L70.2767 84.5197L70.1897 84.576L69.6476 84.8881L71.0132 87.2727L70.0618 87.8202L66.4355 81.4955L67.9444 80.6256ZM69.3867 81.823C69.3554 81.7422 69.3057 81.6699 69.2416 81.6117C69.1774 81.5535 69.1006 81.511 69.0172 81.4877C68.9338 81.4644 68.8461 81.4608 68.7611 81.4772C68.6761 81.4937 68.5961 81.5297 68.5274 81.5825L67.9546 81.91L69.1156 83.9568L69.6885 83.6242C69.7616 83.5847 69.8254 83.53 69.8757 83.4638C69.926 83.3976 69.9616 83.3215 69.98 83.2404C70.0017 83.161 70.0074 83.078 69.9968 82.9963C69.9863 82.9147 69.9598 82.8359 69.9187 82.7645L69.3867 81.823Z" fill="#B4E300"/>
<path d="M33.4465 22.2089C33.2536 22.3345 33.0364 22.418 32.8091 22.4542C32.5817 22.4903 32.3493 22.4782 32.127 22.4187C31.9043 22.3694 31.6941 22.275 31.5093 22.1412C31.3246 22.0075 31.1693 21.8372 31.0529 21.6409L28.9661 18.2381C28.841 18.0458 28.7577 17.8293 28.7216 17.6028C28.6855 17.3762 28.6974 17.1446 28.7564 16.923C28.805 16.6993 28.8991 16.4879 29.0328 16.3022C29.1666 16.1164 29.3371 15.9602 29.5338 15.8433C29.727 15.7183 29.9442 15.6351 30.1715 15.5989C30.3987 15.5628 30.631 15.5746 30.8534 15.6335C31.0763 15.6839 31.2865 15.7793 31.4712 15.914C31.6559 16.0486 31.8112 16.2196 31.9275 16.4164L32.3622 17.1225L31.3956 17.7212L30.9506 16.9946C30.9075 16.9229 30.8504 16.8605 30.7828 16.8113C30.7151 16.7621 30.6382 16.727 30.5567 16.7081C30.4756 16.6871 30.3911 16.683 30.3084 16.6963C30.2257 16.7095 30.1465 16.7396 30.076 16.7848C30.0049 16.828 29.9432 16.8852 29.8949 16.9529C29.8465 17.0207 29.8124 17.0975 29.7947 17.1788C29.7738 17.2591 29.7698 17.3429 29.7831 17.4248C29.7963 17.5068 29.8263 17.585 29.8714 17.6547L31.9684 21.0678C32.0098 21.1394 32.0658 21.2015 32.1328 21.25C32.1998 21.2985 32.2762 21.3323 32.3571 21.3493C32.4372 21.3697 32.5205 21.3739 32.6022 21.3616C32.6839 21.3493 32.7623 21.3207 32.8328 21.2776C32.9045 21.2345 32.9668 21.1774 33.016 21.1097C33.0652 21.042 33.1003 20.9651 33.1192 20.8836C33.1399 20.8024 33.1438 20.7179 33.1306 20.6352C33.1174 20.5524 33.0874 20.4733 33.0425 20.4026L32.2906 19.1796L31.7792 19.502L31.2063 18.5656L32.6947 17.6496L34.0296 19.8193C34.1537 20.013 34.2363 20.2302 34.2724 20.4574C34.3085 20.6846 34.2973 20.9168 34.2393 21.1394C34.1885 21.363 34.0918 21.5735 33.9553 21.7576C33.8188 21.9417 33.6456 22.0954 33.4465 22.2089Z" fill="#B4E300"/>
<path d="M34.0758 13.4332C34.2834 13.3347 34.509 13.2799 34.7386 13.2719C34.9681 13.264 35.1969 13.3032 35.4107 13.3871C35.6274 13.4651 35.8259 13.5865 35.9939 13.744C36.1619 13.9016 36.2959 14.0918 36.3876 14.3031L38.0294 17.926C38.1278 18.1337 38.1827 18.3593 38.1906 18.589C38.1985 18.8187 38.1594 19.0476 38.0755 19.2615C37.9968 19.4779 37.8751 19.676 37.7178 19.844C37.5604 20.012 37.3706 20.1463 37.16 20.2389C36.9529 20.3364 36.728 20.3903 36.4993 20.3973C36.2705 20.4044 36.0428 20.3644 35.8302 20.2798C35.6146 20.201 35.4173 20.0792 35.2502 19.9217C35.0832 19.7643 34.9498 19.5745 34.8584 19.3639L33.2166 15.741C33.1184 15.5323 33.0636 15.3059 33.0557 15.0754C33.0478 14.8449 33.0868 14.6152 33.1705 14.4003C33.2466 14.1853 33.3663 13.9884 33.5221 13.822C33.6779 13.6556 33.8664 13.5232 34.0758 13.4332ZM35.3341 14.7585C35.302 14.6813 35.2539 14.6118 35.1931 14.5545C35.1323 14.4972 35.06 14.4533 34.9811 14.4259C34.9052 14.3932 34.8234 14.3764 34.7407 14.3764C34.6581 14.3764 34.5763 14.3932 34.5004 14.4259C34.4256 14.4595 34.3582 14.5076 34.3021 14.5673C34.2459 14.627 34.2021 14.6972 34.173 14.7738C34.1402 14.8507 34.1233 14.9334 34.1233 15.0169C34.1233 15.1005 34.1402 15.1831 34.173 15.26L35.8199 18.8931C35.8539 18.9685 35.9027 19.0363 35.9633 19.0926C36.0239 19.1488 36.0952 19.1923 36.1729 19.2206C36.3268 19.2843 36.4997 19.2843 36.6536 19.2206C36.7294 19.1877 36.7979 19.14 36.855 19.0803C36.9121 19.0205 36.9567 18.9499 36.9861 18.8726C37.0497 18.7186 37.0497 18.5456 36.9861 18.3916L35.3341 14.7585Z" fill="#B4E300"/>
<path d="M42.3101 18.2585L39.4561 19.1642L37.2568 12.2101L38.2798 11.8775L40.1466 17.7877L41.9572 17.2146L42.3101 18.2585Z" fill="#B4E300"/>
<path d="M45.9265 15.7307C45.974 15.9545 45.9753 16.1857 45.9305 16.41C45.8856 16.6344 45.7955 16.8472 45.6657 17.0356C45.5426 17.2272 45.3815 17.3914 45.1923 17.5182C45.0031 17.6449 44.79 17.7315 44.566 17.7724L42.8731 18.105L41.4717 10.9411L43.1697 10.6085C43.3921 10.5617 43.6218 10.5612 43.8444 10.6069C44.067 10.6527 44.2778 10.7438 44.4637 10.8746C44.6548 11 44.8183 11.1633 44.9441 11.3542C45.0698 11.5452 45.1552 11.7598 45.1951 11.985L45.9265 15.7307ZM43.7426 16.8257L44.3921 16.6978C44.4741 16.6837 44.5521 16.6522 44.621 16.6054C44.6898 16.5586 44.7478 16.4977 44.7911 16.4266C44.8361 16.3579 44.8669 16.2808 44.8819 16.2C44.8968 16.1191 44.8955 16.0361 44.878 15.9558L44.1466 12.2101C44.1322 12.1289 44.1011 12.0514 44.0554 11.9827C44.0096 11.9141 43.9501 11.8556 43.8807 11.811C43.8147 11.7621 43.7391 11.7277 43.6589 11.7101C43.5787 11.6925 43.4956 11.692 43.4152 11.7087L42.7656 11.8366L43.7426 16.8257Z" fill="#B4E300"/>
<path d="M51.8746 9.82556H53.0254L52.0025 17.1379H50.9488L50.2532 13.1722L49.7418 17.1635H48.6882L47.3379 9.89721H48.4887L49.1331 13.7913L49.5884 9.87675H50.7392L51.3887 13.7708L51.8746 9.82556Z" fill="#B4E300"/>
<path d="M54.9998 17.3784L53.9053 17.2709L54.6162 10.0098L55.7108 10.1172L54.9998 17.3784Z" fill="#B4E300"/>
<path d="M58.4468 10.4908L58.9276 15.5772L59.8738 10.7722L60.953 10.982L59.5465 18.146L58.3906 17.9157L57.8075 13.0442L56.9073 17.6496L55.8281 17.4347L57.2347 10.2708L58.4468 10.4908Z" fill="#B4E300"/>
<path d="M63.8269 11.8417L63.6172 16.9588L65.2028 12.3227L66.2257 12.6809L63.8627 19.5787L62.7529 19.1949L62.8347 14.2877L61.3003 18.7088L60.2773 18.3506L62.6353 11.4528L63.8269 11.8417Z" fill="#B4E300"/>
<path d="M64.6045 19.8909L67.8114 13.341L70.6193 14.7226L70.1385 15.7102L68.3177 14.8147L67.438 16.6108L68.7678 17.2607L68.2564 18.2483L66.9265 17.5984L66.0468 19.3843L67.8728 20.2798L67.3868 21.2674L64.6045 19.8909Z" fill="#B4E300"/>
<path d="M73.3361 16.355C73.5564 16.4709 73.7476 16.6352 73.8955 16.8354C74.0434 17.0357 74.1442 17.2668 74.1903 17.5115C74.2316 17.9531 74.1077 18.3943 73.8425 18.7498L73.2696 19.6401C73.1415 19.8544 72.9679 20.0379 72.7611 20.1776C72.5543 20.3173 72.3193 20.4098 72.0728 20.4487L71.0499 23.565L70.027 22.9202L70.9578 20.244L70.8709 20.1928L70.3594 19.85L68.8659 22.1629L67.9453 21.5642L71.8989 15.4237L73.3361 16.355ZM72.9321 18.1869C72.9897 18.1226 73.0314 18.0456 73.0539 17.9623C73.0763 17.8789 73.0789 17.7914 73.0615 17.7068C73.0441 17.6223 73.0072 17.543 72.9536 17.4753C72.9 17.4076 72.8313 17.3534 72.7531 17.317L72.1956 16.9537L70.9323 18.9135L71.4897 19.2717C71.5577 19.3184 71.6347 19.3503 71.7158 19.3653C71.7968 19.3803 71.8802 19.378 71.9603 19.3587C72.123 19.3224 72.2646 19.2231 72.3542 19.0824L72.9321 18.1869Z" fill="#B4E300"/>
<path d="M22.5461 32.2C22.8309 32.2393 23.1156 32.2882 23.4038 32.3138C25.4215 32.5146 27.3492 33.095 29.2695 33.7021C30.9655 34.238 32.6711 34.7495 34.2862 35.5102C36.1006 36.3637 37.6963 37.4817 38.759 39.2363C39.5562 40.5541 40.0352 41.9747 40.1092 43.5166C40.3017 47.5073 38.653 50.5649 35.3375 52.7372C33.2873 54.0811 31.076 55.0791 28.6556 55.5564C27.1516 55.8528 25.651 55.8978 24.1766 55.3675C23.8218 55.2406 23.7369 55.0261 23.9624 54.728C24.0573 54.5976 24.1701 54.4812 24.2973 54.3821C24.7529 54.0407 24.8731 53.5599 24.8987 53.0348C24.9397 52.1956 24.7523 51.3848 24.5986 50.5678C24.3582 49.2893 24.1401 48.0074 23.9351 46.7216C23.7369 45.4824 23.5581 44.2404 23.3895 42.9972C23.2705 42.1187 23.1862 41.2334 23.0786 40.3549C22.9841 39.5777 22.8924 38.7994 22.7745 38.0256C22.6409 37.1948 22.6586 36.3467 22.8269 35.5222C22.8781 35.277 22.8594 35.1142 22.5513 35.1148C21.8229 35.1148 21.0939 35.1051 20.3656 35.1068C19.6372 35.1085 18.9088 35.1637 18.1867 35.1137C17.5386 35.0659 17.0232 34.7376 16.7988 34.0742V33.7328C16.8188 33.7134 16.8501 33.6975 16.8558 33.6759C17.0266 33.05 17.4748 32.7041 18.0802 32.5949C18.7368 32.4742 19.406 32.4202 20.0694 32.3377C20.4396 32.2916 20.8098 32.2472 21.1794 32.2023L22.5461 32.2ZM24.2244 35.2343L24.184 35.3208C24.2228 35.3924 24.2659 35.4616 24.3133 35.5279C24.7233 36.0399 24.9853 36.6186 25.1493 37.249C25.6829 39.2972 25.8327 41.3961 25.9944 43.4939C26.0719 44.4913 26.1168 45.4926 26.2404 46.4843C26.4568 48.2242 26.7194 49.9584 26.9699 51.6943C27.0838 52.4909 27.4221 52.9062 28.0611 52.991C28.3141 53.0272 28.5722 53.0002 28.8122 52.9124C29.5526 52.6115 30.3111 52.3207 31.0071 51.9293C33.1193 50.7419 35.0168 49.2734 36.5715 47.4015C37.3421 46.4735 37.8586 45.4101 37.9212 44.1863C37.989 42.8777 37.4901 41.746 36.6883 40.7401C35.8033 39.6289 34.6575 38.8455 33.4012 38.2173C30.7241 36.8822 27.8763 35.9204 24.9374 35.3589C24.7005 35.3128 24.4619 35.2758 24.2267 35.2343H24.2244Z" fill="#B4E300"/>
<path d="M57.026 50.8989C57.3745 50.3493 57.7196 49.8429 58.0254 49.3132C58.6519 48.2237 59.2641 47.1227 59.8774 46.0235C60.2504 45.3544 60.5893 44.6642 60.9913 44.0134C61.2333 43.6316 61.5224 43.2818 61.8518 42.9722C62.1696 42.6689 62.6058 42.6308 63.0307 42.6877C63.4686 42.7446 63.714 43.231 63.5836 43.7937C63.5028 44.0941 63.3999 44.3881 63.2756 44.6733C63.1702 44.9368 63.0324 45.1854 62.9259 45.4488C62.8614 45.6086 62.8294 45.7795 62.8315 45.9518C62.8336 46.124 62.8699 46.2941 62.9383 46.4522C63.0067 46.6103 63.1058 46.7533 63.2298 46.8729C63.3539 46.9925 63.5005 47.0863 63.6611 47.1489C64.0028 47.2849 64.3154 47.2246 64.5506 46.9736C65.0677 46.4218 65.5461 45.8357 66.0586 45.2782C66.365 44.9453 66.6811 44.6113 67.0382 44.3377C67.5268 43.9639 68.0632 44.0242 68.557 44.3946C69.1766 44.86 69.3782 45.5325 69.5007 46.2391C69.6852 47.3002 69.483 48.2743 68.6316 48.9952C67.9123 49.6045 67.1105 50.0933 66.1332 50.19C66.074 50.1989 66.0152 50.2111 65.9573 50.2264C66.0142 50.747 66.3087 51.1305 66.6299 51.4895C67.549 52.5136 68.733 53.0069 70.0815 53.1298C71.1374 53.2265 71.9198 52.7429 72.536 51.9253C73.1015 51.1754 73.3555 50.3191 73.4398 49.398C73.4608 49.1725 73.5027 48.9494 73.5651 48.7317C73.7957 47.9306 74.7946 47.6507 75.3977 48.2356C75.8021 48.6293 76.0355 49.0987 76.0401 49.7149C76.0481 50.5067 76.1272 51.2961 76.2765 52.0738C76.4547 53.0086 77.1238 53.5861 77.9895 53.6976C78.9206 53.8182 79.9075 53.3517 80.3318 52.5597C80.8284 51.6357 81.1114 50.6417 81.2999 49.6114C81.4338 48.8979 81.6058 48.1922 81.8153 47.4971C81.9429 47.0675 82.2003 46.6869 82.6126 46.4622C83.2709 46.102 83.9583 46.1919 84.6183 46.4343C84.9652 46.5612 85.07 46.935 85.0477 47.2689C84.9908 48.1224 84.9521 48.9895 84.7869 49.8293C84.5272 51.1521 84.1314 52.4465 83.8661 53.7716C83.6086 55.0552 83.4611 56.3604 83.2328 57.6502C82.989 59.0248 82.7282 60.3966 82.4355 61.7609C82.1376 63.1446 81.8825 64.5488 81.309 65.8512C80.4195 67.8778 79.4468 69.8754 77.7947 71.402C76.8471 72.2776 75.7485 72.9905 74.7166 73.774C74.5281 73.9173 74.3316 74.0488 74.1409 74.1876C73.2989 74.8155 72.2709 75.1442 71.2205 75.1213C70.8812 75.1103 70.5488 75.0226 70.2484 74.8647C69.6356 74.5409 69.5445 73.7057 70.1009 73.2972C70.6164 72.9296 71.168 72.6154 71.7473 72.3595C75.0025 70.8694 77.1814 68.3888 78.494 65.1053C79.0903 63.6135 79.391 62.0483 79.588 60.4603C79.7156 59.431 79.8659 58.4035 79.9599 57.3714C79.9912 57.0243 79.9092 56.6574 79.8244 56.3131C79.7537 56.0247 79.5151 55.9336 79.1837 56.0161C78.6142 56.1572 78.0532 56.2329 77.4752 56.0531C76.6466 55.7937 75.9849 55.326 75.5321 54.5738C75.3825 54.3106 75.2159 54.0575 75.0333 53.816C74.6984 53.3938 74.4233 53.3415 73.9808 53.6373C73.5252 53.9417 73.0622 54.2501 72.659 54.6182C71.7257 55.4716 70.6237 55.8648 69.3845 55.9348C67.8879 56.0196 66.537 55.623 65.3542 54.6916C64.4772 54.0003 63.9766 53.053 63.5358 52.0556C63.0472 50.9495 62.5238 49.8594 62.0073 48.7659C61.9254 48.5953 61.8227 48.4355 61.7015 48.2902C61.4589 47.9972 61.1496 47.987 60.9042 48.2806C60.7587 48.466 60.6358 48.6681 60.538 48.8825C59.7749 50.4244 59.0471 51.9851 58.2481 53.5082C57.7566 54.4452 57.0522 55.215 56.022 55.6076C55.2998 55.8824 54.9114 55.8261 54.5003 55.1855C54.0282 54.4492 53.6614 53.6453 53.2429 52.8743C53.1569 52.7156 53.0441 52.5722 52.9439 52.4192C52.871 52.5899 52.773 52.7526 52.7303 52.9312C52.5953 53.5093 52.4866 54.0936 52.3556 54.6723C52.3114 54.8464 52.2507 55.0159 52.1745 55.1786C51.6648 56.3507 50.6203 56.7103 49.4882 56.1083C49.01 55.8517 48.6081 55.4735 48.323 55.0119C48.0645 54.6063 47.7854 54.2154 47.495 53.8296C47.3837 53.7 47.2498 53.5917 47.0998 53.5099C46.8589 53.3614 46.6618 53.4035 46.4773 53.6237C45.549 54.7309 44.3952 55.4489 42.9516 55.6765C41.8769 55.8472 40.8001 55.7977 39.7807 55.4614C38.3621 54.9937 37.866 54.0214 38.2504 52.5341C38.927 49.914 40.4669 48.0342 43.1088 47.1717C43.8007 46.9441 44.4886 46.7017 45.1925 46.5219C45.6584 46.403 46.1379 46.4309 46.516 46.8143C46.9864 47.2923 46.8577 47.8385 46.2091 48.0166C45.856 48.1121 45.4773 48.1127 45.1225 48.2049C43.8314 48.5394 42.7591 49.2119 42.0034 50.3299C41.734 50.7282 41.566 51.1771 41.6714 51.6704C41.8314 52.4209 42.3838 52.7475 43.074 52.9005C44.004 53.1059 44.7933 52.8049 45.4847 52.1996C46.266 51.5168 46.9608 50.7584 47.4426 49.8247C47.5427 49.6423 47.6666 49.4739 47.811 49.324C47.9711 49.1533 48.1772 49.0868 48.4027 49.2102C48.6397 49.3388 48.7444 49.5516 48.6795 49.8054C48.3708 51.0804 48.7649 52.2286 49.3105 53.3483C49.3893 53.4996 49.4901 53.6384 49.6095 53.7602C49.9922 54.1716 50.4239 54.1949 50.8225 53.804C51.0076 53.622 51.1955 53.4057 51.2866 53.1702C51.6392 52.2542 51.7661 51.3023 51.527 50.3379C51.438 50.0101 51.2987 49.698 51.1141 49.4128C50.6972 48.7488 50.249 48.1042 49.8077 47.4556C49.2279 46.6021 49.3094 45.3794 50.0036 44.6165C50.384 44.1983 50.8578 44.225 51.3425 44.3542C51.8403 44.4889 52.2863 44.7697 52.6227 45.1604C52.8744 45.4449 53.1107 45.7407 53.3334 46.0462C54.1694 47.1933 54.9849 48.3545 55.8329 49.493C56.1809 49.9596 56.5869 50.3846 57.026 50.8989ZM68.1276 47.1574C68.0376 47.0095 67.9733 46.7745 67.8298 46.7074C67.709 46.6505 67.4881 46.7688 67.328 46.8485C67.2143 46.9172 67.1171 47.01 67.0433 47.1204C66.7876 47.4618 66.537 47.8032 66.2973 48.1531C66.2329 48.2464 66.2124 48.3699 66.172 48.4797C66.3052 48.5121 66.4465 48.5906 66.5706 48.5696C66.862 48.5266 67.1394 48.417 67.3814 48.2492C67.6233 48.0814 67.8231 47.86 67.9653 47.6024C68.0342 47.484 68.0621 47.3412 68.1276 47.1574Z" fill="#B4E300"/>
<path d="M39.4771 63.2014C39.3785 63.4802 39.2789 63.7584 39.1821 64.0378C38.9788 64.6272 38.7755 65.2172 38.5761 65.8084C38.5672 65.8543 38.5404 65.8949 38.5017 65.9213C38.463 65.9477 38.4155 65.9578 38.3694 65.9495C38.2094 65.9392 38.0477 65.9432 37.8871 65.9495C37.8404 65.9561 37.793 65.9446 37.7546 65.9174C37.7162 65.8902 37.6896 65.8494 37.6803 65.8033C37.4224 65.0289 37.1581 64.2563 36.8956 63.4831C36.7145 62.9501 36.5334 62.4168 36.3523 61.8832C36.3318 61.8212 36.3147 61.7574 36.2891 61.6727C36.5903 61.6727 36.8768 61.6681 37.1621 61.6783C37.2008 61.6783 37.2566 61.75 37.2714 61.799C37.5454 62.6837 37.8136 63.5701 38.0835 64.456C38.0986 64.4927 38.1159 64.5284 38.1353 64.5629C38.1797 64.5106 38.2179 64.4533 38.2492 64.3923C38.5049 63.6168 38.7533 62.8384 39.0129 62.0641C39.1462 61.6658 39.1553 61.6658 39.5648 61.6658C39.9065 61.6658 39.9144 61.6658 40.0261 61.9964C40.2909 62.7861 40.5489 63.5781 40.8125 64.3684C40.8391 64.428 40.8709 64.4851 40.9076 64.5391L40.9515 64.5265C41.0373 64.2489 41.1231 63.9716 41.2089 63.6947C41.3963 63.0831 41.5876 62.4726 41.767 61.8587C41.8108 61.7091 41.8809 61.6533 42.0364 61.6653C42.218 61.6789 42.402 61.6715 42.5854 61.6653C42.7072 61.6653 42.7562 61.6857 42.7095 61.8274C42.3786 62.7815 42.0546 63.738 41.73 64.6944C41.607 65.0551 41.4874 65.4164 41.3683 65.7788C41.3319 65.8926 41.2761 65.9563 41.1406 65.9495C40.9805 65.9387 40.8188 65.9438 40.6582 65.9495C40.614 65.9552 40.5693 65.9443 40.5327 65.919C40.4961 65.8937 40.4702 65.8557 40.46 65.8124C40.1813 64.9973 39.9009 64.1818 39.6189 63.3659C39.5923 63.3049 39.5603 63.2464 39.5232 63.1912L39.4771 63.2014Z" fill="#B4E300"/>
<path d="M56.4736 65.9108C56.1319 65.9108 55.813 65.9176 55.4946 65.9045C55.4434 65.9045 55.3859 65.8192 55.3477 65.7628C55.104 65.4061 54.8614 65.0488 54.6262 64.6864C54.6009 64.6405 54.5628 64.6031 54.5164 64.5788C54.47 64.5545 54.4175 64.5444 54.3654 64.5498C54.2321 64.5561 54.0989 64.5498 53.9667 64.5498C53.752 64.5498 53.7389 64.5646 53.7361 64.774C53.7361 65.0898 53.7309 65.4061 53.7361 65.7219C53.7395 65.8624 53.6985 65.9256 53.5481 65.917C53.3653 65.9073 53.182 65.9119 52.9991 65.917C52.8972 65.917 52.8477 65.8886 52.8477 65.7754C52.8507 64.4508 52.8507 63.1261 52.8477 61.8012C52.8477 61.6982 52.8887 61.6669 52.9861 61.6669C53.6467 61.6669 54.3078 61.651 54.9673 61.6748C55.407 61.6913 55.8216 61.8188 56.1143 62.1869C56.2732 62.3876 56.3679 62.6315 56.3859 62.8867C56.4184 63.2662 56.3756 63.6383 56.1188 63.9353C55.9719 64.0915 55.802 64.2243 55.6148 64.3291C55.4958 64.4024 55.4867 64.4468 55.5636 64.5566C55.8483 64.964 56.1279 65.3782 56.4087 65.7901C56.4309 65.8231 56.4452 65.8561 56.4736 65.9108ZM54.3847 63.7658L54.3887 63.7942C54.6216 63.7629 54.8614 63.7555 55.0869 63.6952C55.3563 63.623 55.5049 63.3772 55.4987 63.1012C55.4924 62.8253 55.3221 62.5596 55.0465 62.5226C54.6552 62.4708 54.2566 62.472 53.8608 62.4657C53.8203 62.4657 53.7435 62.5545 53.7418 62.604C53.7315 62.9408 53.7366 63.2782 53.7361 63.6156C53.7361 63.7294 53.793 63.7709 53.9035 63.7681C54.0641 63.7629 54.2247 63.7658 54.3847 63.7658Z" fill="#B4E300"/>
<path d="M60.0063 63.775C60.0063 63.1372 60.0115 62.4999 60.0029 61.8627C60.0029 61.7051 60.0536 61.6653 60.2028 61.6675C60.7245 61.6749 61.2479 61.6476 61.7678 61.6755C62.6608 61.7222 63.3908 62.0806 63.7491 62.9437C64.2047 64.0418 63.7627 65.405 62.4483 65.8033C62.193 65.8737 61.9296 65.9108 61.6647 65.9137C61.1772 65.9302 60.688 65.9137 60.2 65.9211C60.0451 65.9211 60.0018 65.8716 60.0035 65.7202C60.0109 65.0705 60.0063 64.4219 60.0063 63.775ZM60.8856 63.7886V64.9191C60.8859 64.9246 60.8859 64.9301 60.8856 64.9356C60.8703 65.0756 60.9244 65.1382 61.073 65.1331C61.3059 65.124 61.5394 65.1405 61.7718 65.1268C61.9634 65.1202 62.151 65.0697 62.32 64.9792C62.489 64.8888 62.635 64.7608 62.7467 64.6051C62.9666 64.3092 62.9859 63.973 62.9745 63.6242C62.9558 63.1292 62.5349 62.6001 62.044 62.5238C61.7245 62.4721 61.3959 62.4777 61.0713 62.4561C60.9363 62.4476 60.8839 62.505 60.8856 62.6416C60.8896 63.0222 60.8862 63.4046 60.8856 63.7869V63.7886Z" fill="#B4E300"/>
<path d="M44.9355 65.9165C45.1685 65.3691 45.3809 64.8718 45.5916 64.374C45.9481 63.5342 46.3052 62.695 46.6566 61.8535C46.7221 61.6976 46.8046 61.6083 46.9891 61.631C47.1274 61.645 47.2667 61.645 47.4049 61.631C47.5495 61.6196 47.6253 61.6771 47.6805 61.8097C47.9823 62.5345 48.2916 63.256 48.5985 63.9791L49.3622 65.7816C49.3742 65.8106 49.3821 65.8385 49.4072 65.9159H49C48.496 65.9159 48.496 65.9159 48.3075 65.4562C48.2937 65.4323 48.2822 65.4072 48.2734 65.3811C48.2056 65.0107 47.9806 64.9134 47.6213 64.9435C47.2192 64.9777 46.812 64.9555 46.4065 64.9492C46.3546 64.9431 46.3021 64.956 46.2589 64.9855C46.2157 65.015 46.1846 65.0591 46.1714 65.1097C46.0854 65.3373 45.9851 65.5586 45.898 65.7856C45.8861 65.8282 45.8592 65.865 45.8223 65.8893C45.7853 65.9136 45.7408 65.9236 45.697 65.9176C45.4549 65.913 45.2135 65.9165 44.9355 65.9165ZM47.189 62.7382C47.1521 62.775 47.1194 62.8158 47.0917 62.86C46.928 63.2518 46.7663 63.6448 46.6065 64.0389C46.5672 64.1356 46.6064 64.1897 46.7101 64.1897C47.0148 64.1897 47.32 64.1897 47.6247 64.1897C47.7437 64.1897 47.7619 64.1197 47.7198 64.019C47.6725 63.9052 47.6281 63.7914 47.5814 63.6821C47.4555 63.3766 47.3291 63.0751 47.189 62.7382Z" fill="#B4E300"/>
<path d="M29.2432 65.9142C29.3958 65.558 29.533 65.2394 29.6686 64.9208C30.098 63.9149 30.5266 62.9086 30.9545 61.9019C31.0684 61.6356 31.0638 61.6345 31.3469 61.6339C31.4574 61.6416 31.5683 61.6416 31.6789 61.6339C31.8543 61.6094 31.9391 61.6908 32.0023 61.8421C32.3566 62.6882 32.7165 63.5314 33.0747 64.3752L33.7194 65.8937C33.6536 65.9055 33.5872 65.9136 33.5206 65.9182C33.327 65.921 33.1328 65.9148 32.9386 65.921C32.8943 65.9253 32.8499 65.9138 32.8132 65.8887C32.7766 65.8635 32.75 65.8262 32.7381 65.7833C32.6504 65.5631 32.5559 65.3452 32.4762 65.1216C32.4346 65.0044 32.3691 64.9509 32.2449 64.9538C31.729 64.9572 31.2132 64.9572 30.6976 64.9538C30.6508 64.9494 30.6039 64.9614 30.5649 64.9876C30.5258 65.0138 30.4971 65.0527 30.4835 65.0977C30.3873 65.339 30.2893 65.5796 30.1845 65.8169C30.1657 65.8584 30.1116 65.9113 30.0706 65.9125C29.8081 65.9182 29.5427 65.9142 29.2432 65.9142ZM31.5154 62.7752L31.4551 62.7678C31.4203 62.8378 31.3827 62.9061 31.3526 62.9778C31.2068 63.323 31.0629 63.6687 30.9209 64.015C30.8918 64.0861 30.856 64.1857 30.9852 64.1857C31.3059 64.1931 31.6265 64.1919 31.9471 64.1857C32.0519 64.1857 32.0729 64.1146 32.0319 64.0224C31.9909 63.9302 31.9596 63.8517 31.9237 63.7635L31.5154 62.7752Z" fill="#B4E300"/>
<path d="M70.371 62.138C70.2343 62.3349 70.1022 62.5249 69.9724 62.7155C69.9058 62.8116 69.8425 62.7587 69.7753 62.7155C69.4336 62.5016 69.0777 62.357 68.6637 62.394C68.3915 62.4185 68.1859 62.5949 68.2206 62.827C68.2371 62.9374 68.3174 63.0853 68.4091 63.1274C68.6785 63.2509 68.9689 63.3277 69.2497 63.4267C69.4729 63.5058 69.7053 63.5712 69.9148 63.6776C70.4097 63.9291 70.5327 64.2756 70.4997 64.8189C70.4644 65.401 70.0658 65.8209 69.4319 65.933C68.6039 66.0798 67.8636 65.888 67.2069 65.364C67.1925 65.3465 67.1801 65.3274 67.1699 65.3071C67.3191 65.1273 67.4661 64.9407 67.6255 64.7683C67.6511 64.741 67.7594 64.7564 67.8043 64.7877C68.1079 65.0004 68.4308 65.1734 68.8055 65.1973C68.9813 65.2066 69.1575 65.1874 69.3271 65.1404C69.4097 65.1223 69.4839 65.0773 69.5382 65.0126C69.5925 64.9478 69.6238 64.8669 69.6273 64.7825C69.6356 64.6982 69.6146 64.6136 69.5678 64.5429C69.5211 64.4723 69.4514 64.4198 69.3704 64.3945C69.0823 64.2847 68.7816 64.2062 68.4889 64.1066C68.2833 64.0428 68.0822 63.9654 67.8869 63.875C67.3994 63.6315 67.2912 63.2537 67.3413 62.7673C67.4085 62.1124 67.7525 61.7835 68.4165 61.6481C69.0903 61.5104 69.6956 61.6766 70.2605 62.0401C70.2995 62.0703 70.3364 62.103 70.371 62.138Z" fill="#B4E300"/>
<circle cx="51.1" cy="51.1" r="43.6" stroke="#B4E300"/>
<path d="M24.3882 82.6C15.4634 75.0243 9.7998 63.7235 9.7998 51.1C9.7998 37.937 15.9577 26.2123 25.5498 18.6495M77.3498 82.9861C86.5405 75.4112 92.3998 63.9398 92.3998 51.1C92.3998 38.2601 86.5405 26.7887 77.3498 19.2138" stroke="#B4E300"/>
</svg>