<svg xmlns="http://www.w3.org/2000/svg" width="103" height="103" viewBox="0 0 103 103" fill="none">
<g clip-path="url(#clip0_3136_3991)">
<path d="M74.8 20.8456H7.86691C3.52214 20.8456 0 24.3737 0 28.7257V85.0846C0 89.4366 3.52214 92.9646 7.86691 92.9646H74.8C79.1448 92.9646 82.6669 89.4366 82.6669 85.0846V28.7257C82.6669 24.3737 79.1448 20.8456 74.8 20.8456Z" fill="#B4E300"/>
<path d="M70.5517 71.6611C70.6473 71.1603 70.7466 70.6613 70.8348 70.1587C70.9837 69.3247 71.105 68.4869 71.2741 67.6584C71.355 67.2626 71.5149 66.8686 72.0259 66.8631C72.5368 66.8575 72.7114 67.1963 72.796 67.6216C73.0411 68.8245 73.2861 70.0267 73.5312 71.2284C73.5569 71.4153 73.6353 71.5909 73.7573 71.7347C73.8271 71.453 73.9227 71.1732 73.9669 70.8878C74.1249 69.8439 74.261 68.7999 74.4135 67.7579C74.5201 67.0306 75.1211 66.6532 75.6597 66.9514C76.0586 67.1779 76.1119 67.5443 76.0273 67.9438C75.7295 69.3817 75.4226 70.8178 75.1175 72.2539C75.0275 72.6774 74.9466 73.1008 74.8381 73.5188C74.6984 74.0711 74.4025 74.2883 73.829 74.2994C73.2555 74.3104 72.8696 74.0416 72.7482 73.5151C72.581 72.7915 72.4578 72.0569 72.3052 71.3297C72.2556 71.0903 72.1748 70.8583 72.1086 70.6227L71.956 70.6374C71.8678 71.0498 71.7722 71.4585 71.6914 71.8728C71.5958 72.3644 71.5277 72.8615 71.4285 73.3457C71.3072 73.9514 70.9672 74.2663 70.4231 74.2902C69.8791 74.3141 69.4728 74.1061 69.3203 73.4893C69.0299 72.3717 68.7927 71.2376 68.5593 70.1053C68.3884 69.2805 68.2377 68.4483 68.1219 67.6124C68.0667 67.2202 68.3167 66.9441 68.7008 66.876C69.085 66.8078 69.4361 66.876 69.6199 67.2902C69.6983 67.4626 69.7563 67.6437 69.7926 67.8297C69.9544 68.8883 70.0977 69.9488 70.2613 71.0075C70.3076 71.2323 70.369 71.4537 70.4451 71.6703L70.5517 71.6611Z" fill="#16171A"/>
<path d="M43.4115 71.661C43.5733 70.6981 43.7313 69.7333 43.9004 68.7704C43.9657 68.3439 44.0534 67.921 44.1632 67.5037C44.2588 67.1594 44.4518 66.8557 44.8783 66.8649C45.3047 66.8741 45.529 67.1447 45.6135 67.5442C45.8647 68.7938 46.1158 70.0451 46.367 71.2983C46.3904 71.4715 46.4639 71.6341 46.5785 71.766C46.6561 71.5953 46.7177 71.4178 46.7623 71.2357C46.9277 70.1605 47.0784 69.0834 47.2346 68.0064C47.2493 67.9033 47.2494 67.7983 47.2714 67.6971C47.3928 67.095 47.7806 66.7765 48.2713 66.8741C48.7253 66.9643 48.9716 67.3914 48.854 67.9787C48.6353 69.0834 48.389 70.1752 48.1519 71.2725C47.992 72.009 47.843 72.7583 47.661 73.4948C47.5177 74.0802 47.2218 74.2846 46.6134 74.2883C46.3762 74.3017 46.1421 74.2288 45.9543 74.083C45.7665 73.9371 45.6376 73.7282 45.5914 73.4948C45.4242 72.773 45.301 72.0384 45.1466 71.313C45.0915 71.0553 44.9995 70.8067 44.926 70.5545L44.7753 70.5674C44.6081 71.4566 44.4353 72.3459 44.2772 73.237C44.1192 74.1281 43.349 74.5921 42.623 74.1115C42.3473 73.9274 42.1487 73.5205 42.0715 73.1781C41.7039 71.6187 41.3731 70.0482 41.0422 68.4777C40.9937 68.2058 40.9654 67.9308 40.9577 67.6547C40.944 67.5634 40.9491 67.4703 40.9726 67.3811C40.996 67.2918 41.0374 67.2083 41.0942 67.1356C41.1509 67.0629 41.2218 67.0025 41.3027 66.9582C41.3835 66.9139 41.4725 66.8865 41.5642 66.8778C41.9741 66.8059 42.3638 66.9256 42.4741 67.373C42.6303 68.0064 42.7332 68.6618 42.8417 69.3007C42.9501 69.9396 43.0255 70.5674 43.1229 71.197C43.1637 71.3605 43.2172 71.5206 43.2828 71.6757L43.4115 71.661Z" fill="#16171A"/>
<path d="M57.5498 73.666C57.462 73.7936 57.3675 73.9166 57.2667 74.0342C57.1755 74.1342 57.0597 74.2086 56.9309 74.2498C56.8021 74.2911 56.6647 74.2978 56.5325 74.2693C56.4003 74.2408 56.2778 74.1781 56.1773 74.0874C56.0769 73.9967 56.0019 73.8813 55.9599 73.7525C55.8919 73.5207 55.8615 73.2796 55.8698 73.0382C55.8624 70.6152 55.8624 68.1917 55.8698 65.7675C55.8768 65.5262 55.9051 65.2859 55.9543 65.0495C56.0297 64.626 56.3219 64.4971 56.7208 64.5174C57.1196 64.5377 57.4376 64.7015 57.456 65.16C57.4762 65.6607 57.4708 66.1615 57.4763 66.6642C57.4763 66.8998 57.4763 67.1355 57.4763 67.5166C57.7336 67.3325 57.8622 67.2331 57.9946 67.1484C59.0441 66.4248 60.4833 66.9845 60.5679 68.2365C60.684 69.6982 60.6926 71.1665 60.5936 72.6294C60.4668 74.2864 59.1121 74.802 57.7611 73.8022C57.706 73.758 57.6454 73.7267 57.5498 73.666ZM59.0202 70.5361C58.9927 70.015 58.9669 69.4792 58.9338 68.9453C58.9081 68.5495 58.7647 68.1978 58.3217 68.172C58.2331 68.1659 58.1441 68.1783 58.0605 68.2086C57.977 68.2388 57.9006 68.2862 57.8364 68.3478C57.7722 68.4093 57.7216 68.4836 57.6877 68.5659C57.6539 68.6482 57.6375 68.7367 57.6398 68.8256C57.603 69.9892 57.6012 71.1565 57.6398 72.3238C57.6389 72.4126 57.6572 72.5005 57.6934 72.5815C57.7296 72.6625 57.7829 72.7347 57.8496 72.7931C57.9163 72.8515 57.9949 72.8948 58.0798 72.92C58.1648 72.9451 58.2543 72.9515 58.342 72.9387C58.7776 72.9111 58.9081 72.5705 58.9375 72.2133C58.9871 71.661 59 71.1086 59.0276 70.5342L59.0202 70.5361Z" fill="#16171A"/>
<path d="M65.2885 73.6107C64.7665 74.0913 64.2243 74.3748 63.5497 74.2754C62.5719 74.1318 62.037 73.3014 62.1344 72.136C62.2116 71.1933 62.6251 70.5047 63.5295 70.1273C63.9305 69.9623 64.3161 69.762 64.6819 69.5289C64.912 69.386 65.0988 69.183 65.2223 68.9416C65.2641 68.86 65.2869 68.77 65.2891 68.6783C65.2913 68.5866 65.2728 68.4956 65.235 68.412C65.1972 68.3285 65.141 68.2546 65.0707 68.1958C65.0004 68.137 64.9178 68.0949 64.829 68.0726C64.364 67.9548 64.0515 68.1352 63.91 68.5973C63.7096 69.2767 63.4908 69.424 62.8255 69.3338C62.7474 69.3312 62.6706 69.3131 62.5996 69.2806C62.5285 69.2482 62.4646 69.2019 62.4114 69.1446C62.3583 69.0873 62.3171 69.02 62.29 68.9466C62.263 68.8732 62.2507 68.7952 62.2538 68.717C62.1969 67.7964 62.8586 67.0084 63.9449 66.8979C64.5823 66.8502 65.2232 66.9042 65.8436 67.0581C66.5219 67.2109 66.8417 67.6878 66.8583 68.3911C66.8895 69.7222 66.8932 71.0552 66.9171 72.3864C66.9157 72.6799 66.9385 72.973 66.9851 73.2628C67.0623 73.6752 67.0402 74.0305 66.5991 74.2201C66.4 74.3126 66.1741 74.3291 65.9636 74.2668C65.7532 74.2044 65.5726 74.0674 65.4558 73.8814C65.4135 73.8114 65.3713 73.7378 65.2885 73.6107ZM65.226 70.606C64.2445 70.9484 63.8217 71.5137 63.8806 72.3238C63.9026 72.6423 64 72.9719 64.3382 72.9719C64.4756 72.9662 64.6102 72.9303 64.7322 72.8667C64.8542 72.803 64.9607 72.7132 65.0441 72.6036C65.3951 71.9832 65.3694 71.3019 65.226 70.606Z" fill="#16171A"/>
<path d="M79.9504 73.6108C79.2409 74.2349 78.5057 74.5314 77.6381 74.0692C77.4369 73.9653 77.2638 73.814 77.1338 73.6283C77.0038 73.4427 76.9208 73.2281 76.8918 73.0032C76.6418 71.4235 76.9708 70.7681 78.3953 70.0224C78.7041 69.8623 79.0184 69.715 79.3143 69.5493C79.4651 69.4664 79.682 69.378 79.7224 69.2492C79.8107 68.9583 79.8934 68.6121 79.8015 68.3489C79.7482 68.1942 79.3236 68.0432 79.1233 68.0985C78.9978 68.1466 78.8839 68.2207 78.7888 68.3159C78.6938 68.411 78.6199 68.5251 78.5718 68.6508C78.3788 69.2473 78.0957 69.4517 77.4414 69.3154C77.0168 69.2271 76.8367 68.8883 76.923 68.3396C77.0315 67.6308 77.7024 67.0011 78.6287 66.8925C79.1981 66.8313 79.7737 66.8636 80.3326 66.9883C81.1763 67.1724 81.5311 67.6787 81.5477 68.5643C81.5716 69.7757 81.5605 70.9872 81.5733 72.1987C81.5736 72.527 81.597 72.8549 81.6432 73.18C81.7057 73.5961 81.7278 73.9882 81.2756 74.2036C80.8235 74.4191 80.4374 74.2699 80.0992 73.8262C80.0477 73.7728 80.0202 73.7139 79.9504 73.6108ZM79.9853 71.5248C79.9853 71.21 80.0294 71.0203 79.9706 70.873C79.9301 70.7699 79.7188 70.6355 79.6342 70.665C79.3073 70.776 79.0241 70.9884 78.8258 71.2715C78.6275 71.5545 78.5244 71.8935 78.5314 72.2392C78.5314 72.6166 78.6325 72.9646 79.0515 73.0106C79.4706 73.0566 79.7297 72.7786 79.8308 72.3957C79.8984 72.1085 79.95 71.8177 79.9853 71.5248Z" fill="#16171A"/>
<path d="M49.9233 68.2531C49.9574 67.9462 50.0906 67.6588 50.3026 67.4345C50.5145 67.2102 50.7937 67.0613 51.0978 67.0104C51.6904 66.886 52.2983 66.8519 52.901 66.9091C53.6877 67.014 54.1987 67.5314 54.3586 68.3341C54.4286 68.6017 54.4771 68.8744 54.5037 69.1497C54.5644 70.6724 54.3199 70.8289 52.9635 70.7736C52.7208 70.7626 52.4764 70.7736 52.2282 70.7736C51.3827 70.7736 51.3809 70.7736 51.4195 71.5929C51.424 71.8008 51.4424 72.008 51.4746 72.2134C51.5481 72.6203 51.6805 73.0474 52.186 73.0217C52.6914 72.9959 52.8403 72.5945 52.8568 72.1692C52.8512 71.9936 52.9122 71.8223 53.0274 71.6898C53.1427 71.5573 53.3037 71.4734 53.4782 71.4548C54.0296 71.337 54.4321 71.6684 54.4505 72.2429C54.4659 72.6521 54.3489 73.0554 54.1171 73.3928C53.8853 73.7302 53.551 73.9836 53.1639 74.1153C51.9544 74.5516 50.5152 74.1908 50.0741 73.2684C49.8951 72.8219 49.7895 72.3494 49.7616 71.8691C49.7321 71.437 49.7284 71.0036 49.7505 70.5711C49.7572 69.7955 49.8149 69.0211 49.9233 68.2531ZM52.0793 69.6634C52.855 69.6634 52.8771 69.6505 52.8789 69.0964C52.8789 68.4483 52.629 68.0837 52.1805 68.0837C51.732 68.0837 51.4452 68.4888 51.4158 69.1258C51.3827 69.7334 51.7926 69.6689 52.0793 69.6634Z" fill="#16171A"/>
<path d="M90.6161 73.793C90.1657 73.9863 89.8055 74.2275 89.414 74.2956C88.3736 74.4797 87.5612 73.9016 87.4785 72.7693C87.3535 71.3064 87.3535 69.8355 87.4785 68.3727C87.6348 66.7967 89.0887 66.3051 90.3698 67.2827C90.4347 67.3155 90.5023 67.3426 90.5719 67.3637C90.5719 66.7249 90.5444 66.1246 90.5848 65.5226C90.605 65.228 90.6693 64.8543 90.8623 64.6757C90.9817 64.5854 91.1201 64.5234 91.2668 64.4943C91.4136 64.4653 91.565 64.47 91.7097 64.5081C91.8395 64.5768 91.9534 64.6719 92.0442 64.7873C92.1351 64.9027 92.2008 65.0359 92.2372 65.1783C92.3309 65.5373 92.2795 65.9332 92.2795 66.3143C92.2795 68.5101 92.2795 70.7072 92.2795 72.9055C92.2795 73.1136 92.2666 73.3198 92.2593 73.5278C92.2661 73.7042 92.2104 73.8772 92.1021 74.0164C91.9938 74.1556 91.8398 74.2518 91.6675 74.2882C91.491 74.3436 91.3012 74.3389 91.1276 74.275C90.9541 74.211 90.8066 74.0914 90.708 73.9347L90.6161 73.793ZM89.1162 70.5912C89.128 71.1711 89.1753 71.7497 89.2577 72.3237C89.3018 72.5465 89.6088 72.8669 89.8091 72.8761C90.0095 72.8853 90.4139 72.576 90.4212 72.3937C90.4782 71.1933 90.4819 69.9873 90.4212 68.7869C90.4102 68.5862 90.0334 68.2843 89.7889 68.2346C89.4085 68.1683 89.2761 68.5439 89.2375 68.8606C89.1713 69.4258 89.1529 70.0039 89.1162 70.5912Z" fill="#B4E300"/>
<path d="M84.733 67.8737C84.88 67.6418 84.9903 67.4687 85.1006 67.2938C85.3524 66.8887 85.7273 66.7249 86.1703 66.874C86.6133 67.0231 86.7033 67.4263 86.707 67.8424C86.707 68.3064 86.5232 68.6581 86.0692 68.7962C84.7513 69.1883 84.7513 69.1828 84.7495 70.5821C84.7495 71.5137 84.7605 72.4471 84.7495 73.3787C84.7366 74.0268 84.4407 74.3269 83.8929 74.314C83.3893 74.3011 83.1008 73.9881 83.0952 73.364C83.0824 71.4989 83.0861 69.6339 83.0952 67.7688C83.0952 67.1134 83.3158 66.8482 83.8066 66.828C84.3782 66.804 84.5418 66.9716 84.6557 67.6767C84.6752 67.7447 84.7011 67.8107 84.733 67.8737Z" fill="#B4E300"/>
<path d="M84.4189 62.251H82.3328C81.8255 62.181 81.32 62.0981 80.8108 62.0411C79.2154 61.857 77.7541 61.3875 76.7101 60.0747C75.8867 59.04 75.3978 57.823 75.0743 56.5637C74.5008 54.3341 74.0082 52.0842 73.4861 49.8399C72.5965 46.0103 71.7094 42.1802 70.8246 38.3494C70 34.7899 69.1741 31.2303 68.3469 27.6708C68.187 26.9841 68.0161 26.301 67.8507 25.6161C67.7224 25.6978 67.6304 25.8256 67.5934 25.9733C67.4298 26.684 67.2717 27.3928 67.1173 28.1053C66.5291 30.8142 65.9416 33.5232 65.3546 36.2321C64.8363 38.6016 64.3014 40.9675 63.7849 43.337C63.4173 45.0456 63.0681 46.7615 62.6968 48.4701C62.2961 50.3112 61.9082 52.1616 61.4598 53.9935C61.0921 55.5216 60.7116 57.059 60.2025 58.5448C59.6198 60.2423 58.4122 61.4298 56.633 61.7944C54.2458 62.2794 51.7878 62.3 49.3929 61.8551C48.6634 61.7359 47.9706 61.4514 47.3676 61.0232C46.7646 60.595 46.2672 60.0344 45.9134 59.3843C45.0697 57.9298 44.6359 56.3207 44.1764 54.7207C43.5074 52.3886 42.8414 50.0565 42.1785 47.7244C41.5315 45.4598 40.8753 43.1971 40.2319 40.9307C39.3607 37.8652 38.5042 34.7942 37.633 31.725C37.0374 29.6261 36.4308 27.529 35.8279 25.432C35.4456 24.1009 35.1056 22.755 34.6644 21.4423C34.0634 19.6545 33.5286 17.8539 33.6664 15.9465C34.0708 10.3586 39.8423 8.61325 43.4945 10.7324C45.2884 11.7745 46.1762 13.4812 46.6578 15.3905C47.5401 18.907 48.3287 22.4457 49.1595 25.9751C49.8689 28.9921 50.5808 32.0085 51.2952 35.0243C51.9974 37.9701 52.7075 40.9159 53.4256 43.8617C53.5543 44.3901 53.7031 44.9149 53.8428 45.4396H53.9935C54.1387 44.681 54.2785 43.9188 54.4328 43.1621C54.9659 40.5477 55.5118 37.937 56.0375 35.3207C56.4878 33.0801 56.916 30.8357 57.3535 28.5914C57.8902 25.8297 58.3938 23.068 58.9691 20.3284C59.3992 18.2755 59.8404 16.2153 60.4285 14.2029C61.0002 12.2403 62.2667 10.7987 64.3161 10.274C66.5216 9.73412 68.8201 9.69762 71.0416 10.1672C72.9899 10.5501 74.4107 11.7064 75.0853 13.5604C75.6639 15.1941 76.1403 16.8623 76.5116 18.5554C77.063 20.9709 77.4986 23.4141 78.0041 25.8426C78.3846 27.6727 78.8019 29.4972 79.1934 31.3255C79.6511 33.4612 80.0977 35.5987 80.5517 37.7344C80.9377 39.5473 81.3261 41.3596 81.717 43.1713C81.8751 43.9078 82.0442 44.6313 82.2078 45.3604C82.3585 45.1959 82.462 44.9936 82.5074 44.7749C83.1691 41.9506 83.8179 39.1227 84.487 36.3057C85.5653 31.7397 86.6516 27.1755 87.7458 22.6132C88.3634 20.0356 88.8891 17.4139 89.6556 14.8805C90.6518 11.5664 93.0707 9.49147 96.7027 9.83761C99.3514 10.088 101.285 11.5535 101.958 14.0151C102.37 15.5175 102.221 17.0254 101.809 18.5001C100.379 23.6381 98.9342 28.7724 97.4747 33.903C95.7776 39.8855 94.07 45.8643 92.352 51.8394C91.7197 54.0248 91.0654 56.2065 90.2842 58.3404C89.5766 60.2754 88.2514 61.6415 86.1082 62.0042C85.5457 62.0871 84.9814 62.1626 84.4189 62.251Z" fill="#B4E300"/>
<path d="M82.6671 44.0734C82.6138 44.3053 82.5605 44.5373 82.5054 44.7693C82.46 44.988 82.3565 45.1902 82.2058 45.3548C82.0422 44.6183 81.873 43.8966 81.7149 43.1657C81.324 41.354 80.9356 39.5417 80.5496 37.7288C80.0956 35.5931 79.649 33.4556 79.1913 31.3198C78.7998 29.4916 78.3826 27.667 78.0021 25.8369C77.6804 24.2867 77.3863 22.7328 77.072 21.1807C76.335 20.959 75.5697 20.8461 74.8002 20.8456H58.8642C58.333 23.4232 57.855 26.0137 57.3532 28.5968C56.9158 30.8411 56.4876 33.0855 56.0372 35.3262C55.5116 37.9424 54.9657 40.5531 54.4326 43.1675C54.2782 43.9242 54.1385 44.6865 53.9933 45.445H53.8426C53.7029 44.9203 53.554 44.3956 53.4254 43.8672C52.7122 40.9213 52.002 37.9755 51.295 35.0297C50.5769 32.0152 49.865 28.9988 49.1592 25.9806C48.7567 24.2702 48.3633 22.5579 47.9663 20.8475H34.4639C34.5282 21.0482 34.5943 21.2489 34.6605 21.4477C35.1016 22.7604 35.4417 24.1063 35.824 25.4374C36.4269 27.5345 37.0335 29.6315 37.6291 31.7304C38.5003 34.7959 39.3568 37.8669 40.228 40.9361C40.8713 43.2025 41.5276 45.4653 42.1746 47.7299C42.8424 50.062 43.5083 52.3941 44.1725 54.7262C44.6302 56.3261 45.0658 57.9352 45.9095 59.3897C46.2633 60.0398 46.7607 60.6004 47.3637 61.0286C47.9667 61.4568 48.6594 61.7414 49.389 61.8605C51.7839 62.3054 54.2419 62.2848 56.629 61.7998C58.4083 61.4316 59.6159 60.2477 60.1986 58.5502C60.7077 57.0644 61.0827 55.5271 61.4558 53.9989C61.9043 52.1578 62.2922 50.3166 62.6929 48.4755C63.0605 46.7669 63.4097 45.051 63.781 43.3424C64.2975 40.9729 64.8324 38.607 65.3507 36.2375C65.9425 33.5286 66.5301 30.8197 67.1134 28.1108C67.2678 27.3982 67.4259 26.6894 67.5895 25.9787C67.6265 25.8311 67.7185 25.7032 67.8468 25.6215C68.0122 26.3064 68.1831 26.9895 68.343 27.6762C69.1702 31.2358 69.996 34.7953 70.8207 38.3548C71.7067 42.1844 72.5938 46.0145 73.4822 49.8453C74.0042 52.0897 74.4969 54.3395 75.0704 56.5691C75.3938 57.8285 75.8828 59.0454 76.7062 60.0802C77.7502 61.3929 79.2115 61.8661 80.8069 62.0447C81.3161 62.1036 81.8216 62.1864 82.3289 62.2564H82.6634L82.6671 44.0734Z" fill="#16171A"/>
</g>
<defs>
<clipPath id="clip0_3136_3991">
<rect width="102.2" height="102.2" fill="white"/>
</clipPath>
</defs>
</svg>